<?xml version="1.0" encoding="utf-8"?>
<!-- Generator: Adobe Illustrator 23.0.3, SVG Export Plug-In . SVG Version: 6.00 Build 0)  -->
<svg version="1.1" id="圖層_1" xmlns="http://www.w3.org/2000/svg" xmlns:xlink="http://www.w3.org/1999/xlink" x="0px" y="0px"
	 viewBox="0 0 246 83" style="enable-background:new 0 0 246 83;" xml:space="preserve">
<style type="text/css">
	.st0{stroke:#000000;stroke-width:1.683;stroke-miterlimit:22.926;}
</style>
<path id="Path_230_1_" d="M140.9,34.4L140.9,34.4c0.2,0.9-0.8,1.3-0.7,2c-0.5,0.3,0.1,0.7,0.1,1.2c-0.7,0.6-0.9,1.5-1.2,2.2
	c-0.3,0.3-0.6,0.7-1,0.7c-0.7-0.1-0.9-0.7-1.5-0.9c-0.6-0.4-0.2-1.1-0.7-1.6c-0.2-0.5-0.2-0.9-0.6-1.2c0.1-0.3,0.3-0.6,0.6-0.8
	c-0.2-0.5,0.3-1,0-1.6v-0.1L140.9,34.4L140.9,34.4z M151,34.4L151,34.4c0.1,0.1,0.2,0,0.3,0h6.7c0,0.1,0,0.1,0.1,0.2
	c0.1,0.4-0.4,0.8,0,1.2c0.4,0.2,0.7-0.2,1-0.5c0.2-0.3,0.4-0.6,0.6-0.9h2.3c-0.2,0.2-0.5,0.4-0.7,0.6l-2,2c0,0.5-0.7,0.7-0.9,1
	c-1.1,0.4-1.1,1.6-1.2,2.6c-0.2,0.8-0.3,1.7-0.4,2.5c-0.1,0.2-0.1,0.4,0,0.6c-0.4,0.7,0.2,1.2-0.4,2c-0.6,0.7-0.6,1.6-1,2.1
	c-0.1,0.5-0.6,0.3-0.7,0.6c-0.6,0.7-1.4,0.9-1.8,1.7c-0.3,0.1-0.8,0.3-0.9,0.7c-0.2,0.1-0.4,0.2-0.6,0.1c-0.2-0.3-0.3-0.7-0.2-1
	c0.2-0.3,0.3-0.7,0.2-1c0.2-0.9,0.8-1.8,0.9-2.9c-0.5-0.6,0.7-1,0-1.6c0-0.4,0.5-0.4,0.5-0.7c-0.6-0.9,0.9-2.5-0.6-3
	c-0.8,0-1.3,0.9-2,0.7c-0.5-0.1-0.9-0.2-1.4-0.3c0.2-0.2,0.5,0.1,0.6-0.1c0.7-0.3,1.5,0.2,2-0.6c0.3-0.3,1.1,0,0.8-0.7
	c0.1-0.2,0.3-0.4,0.6-0.6c0.2-0.7,0.9-1.4,0.2-2c0.2-0.6,0.5-0.9,0.4-1.4c-0.8-0.6-1.6,0.4-2.3,0.6c-0.9,0.6-1.9,1.2-3,1.6
	c-1,1-2.9,1.5-3.4,3c0.1,0.3,0.6,0.5,0.7,0.7c-0.6-0.2-1.3-0.2-2,0c-0.3,0.1-0.4-0.2-0.5-0.5c-0.2-0.5,0.2-0.9,0.4-1.4
	c0-0.2-0.1-0.5-0.1-0.7c0.2,0,0.6,0.1,0.7-0.1c0.5-0.4,1.2-0.6,1.2-1.3c0.2,0.2,0.6,0.5,0.7,0.2c0.2-0.7,1.6-1,0.7-1.9
	c0-0.1,0.2-0.3,0.3-0.2c0.2-0.1,0.3,0.1,0.3,0.2c-0.2,0.2,0.1,0.6,0.3,0.6c0.6-0.2,0.7-1,1.4-0.7l0.2,0.2c0.2-0.3,0.2-0.7,0.6-0.7
	c0.4,0.2,0.7,0,1-0.2c0.2-0.2,0.3-0.3,0.2-0.6h0.4L151,34.4L151,34.4z M147.2,41.4L147.2,41.4c-0.4-0.1-0.7-0.2-1.1-0.1
	C146.5,41.8,146.9,41.5,147.2,41.4L147.2,41.4z"/>
<path id="Path_231_1_" d="M138.3,26.2c0,0.1,0.1,0.2,0.2,0.2c0.5,0.2,0.4,0.7,0.5,1c-0.3,0.5,0.2,1,0,1.6c0.7,0.7-0.6,2.1,0.9,2.2
	c0.1,0.7,0.6-0.1,0.9,0.4c0.3-0.1,0.2-0.6,0.5-0.7c0.5-0.2,0.7-0.9,1.3-0.7c0.3-0.1,0.2-0.5,0.5-0.4c0.2-0.6,1-0.8,1.1-1.5
	c0.7-0.3,1.3-0.8,1.8-1.3c0.2-0.2-0.1-0.3,0-0.6c0.2,0,0.2-0.1,0.4-0.2h2.1c-0.6,0.5-0.8,1-1.6,1c-0.3,0.8-1.6,1-1.1,2
	c0.2,0.3,0.5,0.5,0.8,0.6c-0.1,0.4-0.6,0.3-0.7,0.5c-0.2-0.7-0.8-0.1-1.2-0.5c-0.4,0.3-0.4,0.7-0.8,1c-0.1,0.3,0.2,0.6,0.5,0.8
	c0.2-0.1,0.5-0.1,0.7,0.1c-0.3,0.1-0.7-0.2-0.9,0.2c-0.4,0.3-0.8-0.3-1.2-0.2c-0.6,0.3,0.3,1.2-0.6,1.2c0.2,1.1-1,0.7-1.3,1.5h-5
	c-0.1-0.7,0.7-1.4-0.2-2c1-0.6,0.4-1.6,0.5-2.3c0.5-0.6-0.6-1.2,0.6-1.4c0-0.1,0.2-0.3,0.1-0.4c-0.4,0-0.7-0.1-0.7-0.4v-1.8h2
	L138.3,26.2z M149.3,26.2L149.3,26.2c-0.1,0.2-0.2,0.1-0.3,0H149.3z M166.3,26.2L166.3,26.2c-0.1,0.6-0.3,1.1-0.7,1.6
	c-0.1,0.7-0.2,1.6-0.7,2.1c0.3,0.6-0.6,0.8-0.7,1.2c-0.5,0.6-0.7,1.3-1,1.8c-0.4,0.5-0.7,1-1,1.5h-2.3c0.4-0.3,0.6-0.8,0.7-1.3
	l-0.2-0.2c-0.6-0.2-1.4-0.5-2,0.1c-0.2,0.5-0.3,1-0.3,1.5h-6.7c0.2,0,0.4-0.1,0.6-0.2c0.1-0.5,0.5-0.4,0.6-0.5
	c0.3-0.2,0.5-0.5,0.6-0.8c-0.5-0.2-0.2-0.7-0.2-1.1c0.6-0.5,0.5-1.6,0.5-2.3c0.1-0.2-0.2-0.6-0.2-0.7c-0.1-0.1-0.2-0.2-0.2-0.4
	c0.1-0.2,0.7-0.2,0.6-0.6c-0.2-0.3-0.7-0.4-0.6-0.7c-0.1-0.6,0.3-0.2,0.6-0.3c0.2-0.1,0.7-0.4,0.9-0.1c0.4-0.2,0.7,0.4,1.1,0
	c0.2,0.3,0.6,0.3,0.9,0.2c0.1-0.2,0.5-0.6,0.7-0.2c-0.2,0.7,0.6,1.3,0.7,2c0.2,0.2,0.7,0.1,0.6,0.4c-0.1,0.6-0.3,1.1,0.2,1.4
	c0.7,0.5,1.3,0,2,0.6c0.3,0.4-0.1,0.8,0.2,1.2c0.2,0.2,0.4-0.1,0.6-0.2c0.4-0.9,0.8-1.7,1.2-2.6c0.5-0.6,0.7-1.5,0.5-2.2
	c0-0.4,0-0.8,0.2-1.1h3.1L166.3,26.2z"/>
<path id="Path_232_1_" d="M136.1,26.2c-0.1-0.4-0.2-0.8-0.2-1.2c-0.6-0.3-0.3-0.6-0.2-1.1c0.3,0,0.6-0.2,0.7-0.5l-0.1-0.3
	c0.4,0.2,0.1,1,0.7,0.9c0.1-0.2,0.3-0.3,0.2-0.6l0.4,0.1c0.2,0.4-0.2,0.6-0.1,0.8c0.9,0.3,0.3,1.2,0.7,1.8L136.1,26.2z M146.2,26.2
	L146.2,26.2c0.4-0.2,0.8-0.3,1-0.7c0.2-0.5-0.1-0.8,0-1.2c0.6-0.2,1.1,0.6,1.5,0c0.1-0.3-0.3-0.6-0.6-0.7c0.8-0.3,1.8-0.2,2.6-0.7
	c0.2-0.6,0.6-1.3,1.3-1.3c0.2,0.1,0.3,0.4,0.6,0.4c0.3,0.1,0.6-0.3,0.7-0.6c0-0.4,0.5-0.1,0.7-0.2c0.5-0.5,1.1-0.7,1.8-0.7
	c0.9-1,2.3-0.7,3.4-1.2c0.5-0.2,1.1,0.1,1.4-0.2c0.9,0.3,2-0.1,2.8,0.4s1.3,1.2,2,1.9c0.7,0.6,0.9,1.6,1.1,2.3
	c-0.2,0.9-0.1,1.8-0.2,2.6h-3.4c0.1,0,0.1-0.1,0.1-0.2c0.5-0.8,0-1.7,0.1-2.6c-0.6-0.4-0.6-1-1-1.5c-0.2-0.4-0.3-0.7-0.7-0.8
	c-1.2-0.3-2.6-0.7-3.8-0.3c-0.6,0.3-1.4,0.2-1.9,0.6c-0.7,0.1-0.7,0.9-1.5,0.7c-0.7,0.3-1,1.2-2,1.1c-0.2,0.2-0.3,0.5-0.2,0.7
	c-0.4,0.1-0.7,0.3-0.9,0.6c-0.6-0.1-0.9,0.2-1.3,0.2c-0.4,0.2,0,0.8-0.5,0.9c-0.2,0.1-0.2,0.4-0.2,0.6h-0.3
	c-0.1-0.1-0.2-0.2-0.4-0.2c-0.2,0.1-0.2,0.2-0.4,0.2L146.2,26.2L146.2,26.2z"/>
<path id="Path_233_1_" d="M129.9,31.8l0.2,0.1c0.1,0,0.5,0.2,0.4,0.4l-0.1,0.4c-0.1,0-0.1,0.1-0.1,0.2c0.1,0,0.1,0,0.1,0.1v0
	c-0.1,0.5-0.2,1.1-0.2,1.6c0,0.1,0,0.1-0.1,0.2l-0.6,2.3c-0.6,2.3-1.6,4.4-2.9,6.4c-1.4,2.3-3.2,4.3-5.3,5.9
	c-2.2,1.6-4.7,2.7-7.4,3.4c-2.2,0.6-4.4,0.7-6.6,0.4c-0.1-0.1-0.3-0.2-0.5-0.2l-1.6-0.4c-0.9-0.4-2-0.8-2.9-1.3
	c-0.4-0.2-0.8-0.5-1.1-0.8c-0.3-0.2-0.5-0.3-0.8-0.5c-0.4-0.2-0.8-0.5-1-0.9c-2-1.9-3.1-5.2-2.6-7.4c0.1-0.2,0.2-0.5,0.2-0.7
	c0.1-0.3,0.2-0.6,0.4-0.8c0.7-0.5,1.2-1,1.9-0.9c0.5,0.1,0.7,0.6,1.1,0.9c-0.9,0.1-1.6,1.1-1.7,1.8c-0.2,0.6-0.2,1.3-0.1,2
	c0.3,1.5,1.1,3,2.1,4.1c0.5,0.4,1,0.8,1.6,1c1,0.7,2,1.2,3.2,1.6l0.5,0.2l0.7,0.2c0.2,0,1.2,0.1,1.3,0.1c0.3,0.3,0.5,0.6,0.7,0.9
	c0.3-0.2,0.5-0.4,0.8-0.6c0.3-0.1,0.6-0.1,0.8-0.1c2-0.2,3.9-0.6,5.8-1.1c1.4-0.5,2.8-1.2,4-2c1.1-0.9,2.2-1.9,3.1-3.1
	c1.7-2,3.1-4.2,4.1-6.6c0.4-0.8,0.7-1.6,0.9-2.4C128.7,34.7,129.3,33.2,129.9,31.8z"/>
<path id="Path_234_1_" d="M109.3,14.8v0.6c0,1.6-2,2.7-3.2,4.4c0-0.1,0-0.1-0.1-0.2L109.3,14.8z"/>
<path id="Path_235_1_" d="M113.1,18.2L113.1,18.2c0.6,0,1.1,0.6,1.4,1.2c0.3,0.6,0.4,1.3,0.4,2v0.5c0.1,0.5,0,1.1-0.3,1.6
	c-0.4,0.6-1,0.9-1.6,1.5c-0.7,0.6-1.4,1.2-2.2,1.6c-0.6,0.4-1.2,0.6-1.9,0.6h-0.5c-0.1,0-0.2,0-0.3-0.1c-0.1,0-0.2-0.2-0.3-0.3
	c-0.1-0.3-0.2-0.6-0.3-0.8c0-0.2,1-2.2,1.4-3c0.6-1,1.3-2,2-2.9c0.4-0.5,0.8-0.9,1.3-1.2c0.1-0.1,0.2-0.3,0.3-0.5
	C112.8,18.3,113,18.3,113.1,18.2L113.1,18.2L113.1,18.2z M115.4,16.8L115.4,16.8c0.7,0,1.2,0.5,2,1.1c-0.2,0.3-0.2,0.7-0.2,1
	c-0.1,0.6,0,1.4-0.7,1.7c-0.3-1.3-0.8-2.5-1.4-3.7C115.3,16.7,115.4,16.8,115.4,16.8L115.4,16.8z M116.2,15.1L116.2,15.1
	c-1.2,0.2-2.4,0.6-3.5,1.1c-0.9,0.6-2,1.1-3,1.8c-2.1,1.7-4.3,4.2-6.4,6.3c0.2-0.5,0.4-0.7,0.4-0.9c0-0.2-0.1-0.4-0.2-0.6
	c-0.8,0.9-1.6,1.8-2.3,2.7c-0.4,0.5-0.8,0.9-1.2,1.4c-0.9,1.6-2.5,2.3-3.5,3.8c-0.3,0.4-0.6,0.6-0.6,0.8c0,0.3,0.3,0.6,0.3,0.8h0.4
	c1.1,0,2.4-0.7,3.4-2.2c0.9-1.2,1.7-2.7,3-3.4c0.1-0.1,0.2-0.1,0.2-0.2c1.2-2.3,3.7-4.7,5.7-6.6c0.2-0.1,0.3-0.2,0.5-0.3
	c-1.8,2.1-3.2,3.6-3.2,5.6c0,1.5,0.6,2.7,2.3,2.7c0.8,0,1.4-0.3,2.3-0.5c1.2-0.2,2.3-0.9,3.5-1.7c0.3-0.2,0.5-0.4,0.7-0.6
	c0.1,0.4,0.2,0.8,0.2,1.2c0,0.3,0,0.6-0.2,0.9c-0.1-0.1-0.2-0.1-0.4-0.1c-0.6,0.1-1.1,0.3-1.6,0.7l-0.6,0.3
	c-0.2,0.1-0.3,0.2-0.4,0.2c-1.4,1.4-2.7,2.9-3.9,4.5c-1.5,1.9-2.5,4.1-2.9,6.5c0,0.3-0.1,0.7-0.1,0.7v1.3c0,0.3,0.2,1.4,0.2,1.5
	c0.7,0.6,1.5,1.4,2.1,2c0.4,0.3,0.8,0.5,1.3,0.7c1.7,0.7,3.4,1.7,4.9,2.1c0.2,0.1,0.4,0.2,0.7,0.2c0.6,0,0.7-0.5,0.9-1.1
	c0.1-0.2,0.2-0.2,0.2-0.3v-0.6c0-1.8,0.7-3.7,0.7-5.5c0.2-0.6,0.6-1,1.2-1.2c0.3-0.2,1.7-0.7,1.7-1.5c0-0.7-0.5-1.2-1.1-1.3
	c-0.6,0.1-1.1,0.3-1.6,0.7c-0.2-0.4-0.4-0.8-0.4-1.2l0.1-1.1v-0.8c0.1-0.5,0.2-0.9,0.3-1.4c0.1-0.4,0.1-0.7,0.2-1.1v-2.2l-0.2-4.2
	v-2c1.2-1.6,2.3-3.4,2.3-5c0-0.4-0.1-0.9-0.2-1.3c-0.1-0.2-0.1-0.5-0.2-0.6C117.6,15.7,117,15.1,116.2,15.1L116.2,15.1z M114.8,35.2
	c0.2,0.3,0.2,0.6,0.2,0.9c0,0.5,0,0.9-0.2,1.4c-0.1,0.2-0.3,0.4-0.5,0.5c-0.5,0.4-1.1,0.5-1.8,0.6h-0.1
	C113.3,37.5,113.7,36.3,114.8,35.2L114.8,35.2z M114.4,28.9L114.4,28.9c-0.2,0-0.6,0.4-0.7,0.5c-2,1.6-3.1,3.7-4,5.6
	c-0.2,0.2-0.2,0.5-0.4,0.6c-0.2,0.4-0.4,0.7-0.6,1.1c-0.6,1.6-1.4,3.3-1.4,4.9c0,0.5,0.1,1,0.3,1.4c0.1,0.1,0.6,1,0.9,1
	c0.3,0,0.7-0.7,1.1-0.7c0.2,0,0.3,0.5,0.3,0.6c0,0.2-0.3,0.6-0.3,0.7c0,0.2,0.5,0.4,0.6,0.4c0.6,0.2,1.1,0.2,1.6,0.4
	c0.2,0.1,0.2,0.2,0.4,0.3c0.4,0.2,0.7,0.2,1.1,0.2c0.3,0,0.6-0.1,0.7-0.3c0.2-0.6,0.3-1.3,0.4-2V43c0-0.3,0-0.6-0.2-0.9l-2.7,1
	l-0.1-0.1c0,0-0.2,0.2-0.3,0.2c-0.2,0-0.3-0.1-0.4-0.1l0.4-0.5h-0.1c0.7-0.5,1.4-1,2-1.6H113c-0.2,0-1.8,0.5-2.2,0.6h-0.4
	c-0.3,0-0.5,0-0.7-0.1c-0.3-0.3-0.6-0.7-0.6-1.1v-0.3c0.7-1,1.4-1.9,2.2-2.8c0.5-0.5,0.9-1.1,1.3-1.7c0.2-0.4,0.4-0.8,0.7-1.1
	c0.6-1.2,1.7-3.2,1.7-4.5v-0.7C115.2,29,114.7,28.9,114.4,28.9L114.4,28.9z"/>
<path id="Path_236_1_" d="M209.8,44.9c0-0.2,0.2-0.5,0-0.6c-0.1-0.3-0.3-0.7,0-0.9c0.4-0.5,0-0.9-0.2-1.3c-0.4-0.2-0.7-0.6-1-0.7
	c-0.1-0.5-0.6-0.5-0.7-0.8c0-0.5-0.6-0.4-0.6-0.9c-0.7-0.3-0.7-1.2-1.4-1.3c-0.3-0.4-0.7-0.6-0.9-0.9l-0.1,0.1
	c-0.2-0.1-0.3-0.2-0.4-0.4c-0.1-0.1-0.2-0.4-0.3-0.2c0.1-0.2-0.1-0.2-0.2-0.4c-0.2-0.6-0.8-0.5-1.2-0.9c-0.6,0.1-0.7-0.5-1-0.7
	c-0.3-0.7-1-0.9-1.5-1.6c-0.3,0-0.6-0.3-0.8-0.4c-0.4-0.2-0.8-0.2-0.9-0.6c-0.3,0-0.3-0.5-0.6-0.6c-0.3,0.2-0.6,0-0.7-0.2
	c-0.3-0.6-0.9-0.4-1.1-0.9c0,0-0.2-0.2-0.2,0c-0.4-0.6-1-0.4-1.5-0.7c-0.3-0.2-0.6-0.3-0.9-0.4c-0.2,0.1-0.4-0.5-0.6-0.1
	c0.2,0.3-0.1,0.6,0,0.9c0.5,0.2,0.2,0.7,0.6,0.9c0.2,0.2,0.2,0.3,0.1,0.6c0.1,0.2,0.3,0.3,0.6,0.5c0.5,0.4,1,0.6,1.6,0.7
	c0.3,0.2,0.7,0.1,1,0.5c0.5,0,1,0.2,1.4,0.6c0.2,0.1,0.3,0.5,0.7,0.3c0.8,0.6,1.2,1.3,2.1,1.7c0.4,0.4,0.9,0.9,1.5,0.7
	c0.2,0.1,0.3,0.4,0.5,0.6c-0.2,0.6,0.6,0.3,0.6,0.7c0.1,0.6,0.7,0.7,0.9,1.4c0.2,0.4,0.6,0.4,0.7,0.8c0.6,0.3,0.7,0.9,1,1.3
	c0.2,0,0.2,0,0.3,0.2c0,0.4-0.2,0.8-0.4,1.1c-0.2,0.3-0.5,0.4-0.8,0.4c-0.2-0.2-0.6,0.2-0.7-0.1c-0.3,0-0.7,0-1,0
	c-0.3-0.1-0.5-0.2-0.8-0.2c-0.2,0-0.6-0.2-0.7,0c0,0.2,0.2,0.2,0.3,0.2c0.5,0.2,0.7,0.6,1.1,0.6c0.7,0.5,1.6,0.6,2.3,0.9
	c0.1,0.2,0.3,0.1,0.3,0.2c0.1,0.1,0.2,0,0.3-0.1c0.2,0.3,0.6-0.1,0.9,0.3c0.4,0.2,0.7,0.4,1.2,0.6c0-0.1,0-0.2,0.1-0.2
	c-0.2,0.2,0.2,0.2,0.2,0.3c0.5,0.3,0.7-0.1,1.2-0.2C210,45.5,210,45.2,209.8,44.9z"/>
<path id="Path_237_1_" d="M184.4,16.7c-0.2,0.1-0.4,0.2-0.5,0.5h0.2C184.2,16.9,184.4,16.9,184.4,16.7z"/>
<path id="Path_238_1_" d="M183,18.2V18c0,0,0.2-0.2,0.3-0.2c0.2-0.2,0.6-0.4,0.6-0.7l-0.2-0.1c0,0.2-0.2,0.3-0.3,0.5
	c-0.2,0.3-0.7,0.3-0.9,0.6C182.4,18.6,182.7,18,183,18.2z"/>
<path id="Path_240_1_" d="M191.2,27.4c0.2,0,0.5-0.2,0.7-0.2c0.2-0.2,0.5,0,0.7-0.1c0.5,0.1,0.9-0.4,1.4-0.2
	c0.2-0.3,0.6,0.1,0.8-0.1c0.2-0.2,0.5,0.1,0.6-0.2c0.7-0.1,1.6,0.1,2.3-0.2h2c0.3,0,0.6,0,0.9,0.1c0.4-0.2,0.9,0.2,1.2-0.2
	c0.4,0.1,0.8,0,1.2-0.1c0.2-0.1,0.3-0.3,0.3-0.6c-0.2-0.4-0.7-0.2-0.9-0.6c-0.6,0.1-0.6-0.6-0.9-0.7c-0.6,0.1-0.9-0.2-1.4-0.6
	c-0.2,0-0.3-0.2-0.2-0.5c-0.2,0-0.2,0.2-0.4,0.2c-0.2-0.1-0.3-0.2-0.5-0.3c-0.3,0-0.3-0.4-0.7-0.4c-0.3-0.7-1-0.6-1.5-0.9
	c-0.2-0.6-0.7-0.6-1-0.9c-0.6-0.3-1.1-0.7-1.6-1.2c-0.3-0.5-1-0.1-1.3-0.6c-0.2,0.1-0.6,0.1-0.6,0.4c-0.2,0.2-0.7,0.3-0.7,0.6
	c-0.7,0.2-0.4,1-0.8,1.4c0,0.1-0.3,0.1-0.2,0.2c-0.2,0.5,0.2,0.9-0.4,1.2c-0.4,0.2-0.4,0.6-0.6,0.8c0.1,0,0.1-0.1,0.2-0.1
	c0.1,0.2,0,0.4-0.2,0.4l-0.1-0.2c0,0.3-0.1,0.6-0.1,0.7c0,0.3-0.4,0.2-0.4,0.5c0.1,0.6-0.5,0.6-0.8,0.8c-0.5,0-0.9,0.3-1.5,0.2
	c-0.6,0.3-1.2,0-1.9,0.2c-0.5,0.1-0.9-0.2-1.2,0.2c-0.6,0-1.1,0.5-1.5,0c-0.4,0.1-0.7,0.2-1.1,0.3c-0.5-0.1-1-0.1-1.5,0
	c-0.6-0.3-0.9,0.3-1.4,0c-0.4,0.5-0.9,0.2-1.4,0.3c-0.2,0.2-0.3,0.2-0.6,0.2c-0.3-0.1-0.6-0.4-0.7-0.7c-0.2-0.3-0.1-0.8,0.2-1
	c-0.1-0.5,0.5-0.5,0.6-0.7c0.6-0.2,0.4-0.9,0.9-1.1c0.2-0.4,0.4-0.8,0.7-1.1c0.1-0.6,0.6-0.7,0.7-1.2c0.3-0.2,0.6-0.4,0.9-0.7
	c0-0.6,0.7-0.3,0.9-0.9c0.1-0.2,0.2-0.4,0.4-0.6c-0.3,0.2-0.4,0.5-0.7,0.6c-0.1,0.4-0.5,0.6-0.7,0.7c-0.7,0.2-0.8,1-1.6,1.2
	c-0.4,0.1-0.3,0.6-0.7,0.6c-0.6,0.7-1.5,1.1-2,1.9v0.4c-0.4,0.3-0.8,0.6-1.3,0.7c-0.2,0.3-0.3,0.7-0.4,1c-0.4,0.2-0.1,0.7-0.3,0.8
	c-0.2,0.1-0.4,0.2-0.6,0.1c-0.2,0.2-0.2,0.4-0.3,0.6c0.2,0.3,0,0.7,0.2,0.9c0.7-0.1,0.6,0.8,1.1,0.8c0.2,0.3,0.6,0,0.7,0.3
	c0.2,0.3,0.6,0.1,0.7,0c0.2,0,0.5,0,0.6-0.2c0.3-0.2,0.7-0.1,0.9-0.4c0.2-0.6,0.8,0,1-0.5c0.4-0.3,0.5,0.2,0.9,0.1
	c0.6-0.6,1.3-0.2,2-0.4c0.4-0.1,0.8-0.3,1.2-0.6c0.3,0.1,0.6,0.1,0.8,0c0.5-0.2,0.9,0.2,1.1-0.3c0.2-0.1,0.3,0,0.5,0.2
	c0.2-0.1,0.3,0.2,0.4-0.1c0.2-0.2,0.6-0.1,0.9-0.2c0.6,0.4,1.2-0.6,1.9,0.1c0,0.3-0.1,0.5-0.2,0.7c0.2,0.5-0.4,0.7-0.4,1
	c-0.6,0.5-0.6,1.2-1,1.8c-0.3,0.5-0.5,1-0.7,1.6c0.1,0.2,0.2,0.2,0.2,0.4c-0.3,0.4-0.6,1-0.7,1.5c0.3,0.5-0.3,0.6-0.5,0.8
	c-0.2,0.2-0.5,0.3-0.5,0.6c0.2,0,0.2,0.2,0.2,0.3c0,0.1-0.1,0.3-0.2,0.4c-0.1,0.1-0.2,0.1-0.3-0.1c-0.3,0.5-0.4,1-0.6,1.6
	c0.2-0.2,0.2-0.6,0.5-0.7c0.6-0.3,0.8-0.9,1.2-1.3c0-0.1,0.2-0.2,0.2-0.1c0.1,0.2,0.1,0.4,0.1,0.6c0.1,0.1,0.2,0,0.2,0.1
	c0.3-0.3,0.6-0.7,0.8-1.1c-0.4-0.3,0.2-0.3,0.1-0.7c0.1-0.2,0.2-0.2,0.3-0.2c0.2-0.2,0.3-0.5,0.3-0.7c0.6-0.3,0.3-0.9,0.8-1.2
	c-0.1-0.5,0.5-0.7,0.8-0.9c0.1,0,0.3,0.1,0.4,0.2c0.1,0.1,0.2,0,0.2-0.1c-0.2-0.2,0.2-0.4,0.2-0.6c0.2-0.5,0.4-1,0.5-1.6
	c0.2-0.2,0.2-0.7,0.2-0.9c0.4-0.4,0.2-1.1,0.7-1.3C190.7,27.9,190.7,27.1,191.2,27.4L191.2,27.4z M191.9,24.9L191.9,24.9
	c0.2-0.2,0.1-0.6,0.4-0.6c0.2-0.2,0.1-0.6,0.2-0.7c0.2-0.4,0.5-0.7,0.5-1c0.6-0.2,0.7-0.7,1-1.1c0.6,0.1,1-0.1,1.5,0.2l0.2,0.3
	c0.5,0.1,0.7,0.7,1.2,0.7c0.7,0.1,0.7,1.2,1.6,1.3c0.2,0.2,0.3,0.4,0.3,0.7c0,0.2-0.2,0.4-0.4,0.6c-0.3-0.2-0.5,0.4-0.8,0.2
	c-0.1,0.1-0.2,0.1-0.4,0c-0.2-0.2-0.4,0-0.6,0c-0.1,0.3-0.3,0.1-0.6,0.1c-0.6,0.1-1,0.4-1.6,0.2c-0.5,0.1-1,0.4-1.4,0.2
	c-0.5-0.2-0.9,0.4-1.2-0.1C191.5,25.4,192,25.2,191.9,24.9L191.9,24.9z"/>
<path id="Path_241_1_" d="M187.9,34.1c0,0.6-0.7,0.7-0.6,1.3c-0.4,0.3-0.5,0.8-0.5,1.2c0.2-0.2,0.2-0.5,0.5-0.6
	c0.3-0.4,0.3-1,0.6-1.5c0-0.2,0.4-0.5,0.2-0.6L187.9,34.1z"/>
<path id="Path_242_1_" d="M184.6,38.1c0.2,0.1,0.3-0.1,0.5-0.1s0.3-0.2,0.3-0.4c-0.2-0.2-0.4-0.4-0.6-0.3c-0.2,0.2-0.2,0.5,0,0.6
	C184.7,37.9,184.7,38.2,184.6,38.1z"/>
<path id="Path_243_1_" d="M185.8,38.6c-0.1,0.8-0.7,1.3-0.9,2c-0.2,0.2-0.3,0.6-0.5,0.7c0.1,0.1,0.2,0.1,0.2,0.2
	c-0.1,0.5-0.6,0.7-0.4,1.1c-0.3,0.5-0.6,1-0.8,1.5c-0.5,0.3-0.5,0.8-0.7,1.3c-0.1,0.2-0.4,0.3-0.3,0.6c0.1,0,0.1-0.1,0.2-0.1v0.2
	c-0.5,0.4-0.9,1-1.2,1.6c0,0.2,0.1,0.2,0.2,0.2c0.1-0.1,0.2-0.1,0.2-0.2c-0.1-0.6,0.7-0.7,0.8-1.2c0.1-0.6,0.7-0.9,0.6-1.5
	c0.5-0.3,0.4-0.9,0.9-1.1c0.2-0.6,0.6-0.9,0.7-1.4c0.6-0.6,0.6-1.2,1-1.6c0.2-0.3,0.3-0.7,0.2-1v-0.2c-0.2-0.5,0.2-0.8,0.3-1.3
	C186.1,38.5,185.9,38.7,185.8,38.6z"/>
<path id="Path_244_1_" d="M182.2,42.7c0-0.3,0.5-0.5,0.7-0.7c0.2-0.1,0.4,0,0.5-0.2c0.5-0.1,0.3-0.6,0.7-0.8
	c-0.1-0.3,0.1-0.6-0.1-0.8c0-0.2,0.3-0.2,0.3-0.3h0.2c-0.2-0.3-0.5,0.1-0.6-0.2l-0.1,0.1c-0.3-0.1-0.4,0.3-0.6,0.5
	c0,0.6-0.6,0.9-0.9,1.4C182.2,42,181.8,42.5,182.2,42.7z"/>
<path id="Path_245_1_" d="M181.5,43L181.5,43c-0.2,0-0.2-0.1-0.3-0.2c-0.2,0-0.2,0.1-0.3,0.2c0.1,0.2,0.2,0.1,0.3,0.1
	C181.3,42.9,181.3,43.2,181.5,43z"/>
<path id="Path_246_1_" d="M182.3,44.2c0.3-0.2,0.2-0.5,0.4-0.6c0.1-0.3-0.4-0.4-0.7-0.6c0,0.4-0.6,0.2-0.7,0.6
	c0.1,0.5-0.4,0.7-0.3,1c0.1,0.2,0.1,0.2,0.2,0.2c0.2,0,0.2-0.1,0.2-0.2C181.7,44.5,182,44,182.3,44.2z"/>
<path id="Path_247_1_" d="M180.4,43.9l0.2,0.1c0.1,0,0.3,0,0.3-0.2l-0.2-0.3C180.7,43.7,180.4,43.8,180.4,43.9z"/>
<path id="Path_248_1_" d="M180,44.8c0.2,0.1,0.6,0.1,0.7-0.2c-0.2,0.2-0.3,0-0.6,0C180.1,44.8,180,44.7,180,44.8z"/>
<path id="Path_249_1_" d="M179.7,45.4c-0.3,0.2-0.6,0.5-0.6,0.7c0.1,0,0.2,0,0.2-0.2c0.4,0.2,0.2-0.2,0.3-0.4
	c0.2-0.1,0.5-0.2,0.7-0.1c0,0.2-0.1,0.5-0.3,0.7c0.2,0.2-0.3,0.6-0.2,0.7c0.2-0.1,0.5-0.2,0.7-0.2c0.3-0.2,0.2-0.7,0.4-0.9l-0.2-0.5
	C180.5,45.5,180.1,45.5,179.7,45.4z"/>
<path id="Path_250_1_" d="M238.5,15.2c0.6,0,2.9,0.6,4.5,0.8c0.1,0.3,0.3,0.2,0.3,0.7c0,0.7-5.3,2.7-6.2,3.1
	c0.1-0.2,0.2-0.4,0.2-0.6c-0.2,0.1,0-0.2-0.7-0.2c-0.6,0-4.1,2-6.3,3c0.9-0.9,2-0.7,2-1.7c0-0.5,0-0.2-0.2-0.4
	c-1.7,0.6-3.7,1.7-5.9,2.8c3-2,8.4-4.5,8.8-6.8C236,15.8,237.8,15.2,238.5,15.2z"/>
<path id="Path_251_1_" d="M234.7,16.1c-2.9,0.9-7.9,2.2-8.5,2.2c-1.9,0-2-0.9-4.1-2c2,0.2,5,0.7,5.7,0.7
	C228.4,16.9,232,16.6,234.7,16.1z"/>
<path id="Path_252_1_" d="M214,16.9c1.1,0.4,3,1.3,3.6,1.3c0.6,0,0.7-0.2,1.3-0.4c-0.7,0.8-1.6,1.9-2.9,1.9
	C214.3,19.7,215.1,18.4,214,16.9z"/>
<path id="Path_253_1_" d="M229.7,22.3c-0.8,0.7-1.7,1.3-2.7,1.6C227.8,23.2,228.7,22.6,229.7,22.3z"/>
<path id="Path_254_1_" d="M225.6,23l-2,2c0.2,0.2,0,0.1,0.6,0.1c0.7,0,0.9-0.3,1.5-0.7c-0.2,0.3-0.4,0.2-0.4,0.6
	c0,0.6,0.2,0.3,0.6,0.4c-2.2,0.6-4.4,1-6.7,1.4C221.1,25.5,223.5,24.2,225.6,23z"/>
<path id="Path_255_1_" d="M232.8,43.7c0.4,0,1.5,0.2,1.5,0.7c0,1.3-2.8,3.5-3.8,4c-1.3,0.6-6.5,1.6-8.5,1.6c-0.9,0-4.2,0.1-4.2-1.6
	c0-1.5,1.1-1.9,2.7-2.5C222.5,44.9,229.6,43.7,232.8,43.7L232.8,43.7L232.8,43.7z M225.1,23.3L225.1,23.3c-1.7,1-3.4,2-4.9,3
	c-0.3,0.2-0.8,0.2-1,0.5c-0.4,0.6-0.7,1.2-1.1,1.9c0.7,0.4,1.4,0.7,2.1,0.9h1.9c0.2-0.9,4.1-2.1,5.2-2.1c0.2,0,1.3,0,1.3,0.7
	c0,0.2-0.4,0.6-0.4,0.6c0,0.1,0.1,0.2,0.2,0.2c0,0,0,0,0,0c0,0.4-5,4.2-5,4.2l-1.4,0.6c0.1,0.2,0.2,0.3,0.3,0.6
	c-0.1,0.2-0.2,0.5-0.3,0.7c0,0.9,1.9,0.9,2.2,0.9c0.2,0,2.1-0.2,2.3-0.2l3.5,0.2c-1.6,1-3.2,1.9-4.7,2.7c0.2,0.3,0.3,0.5,0.4,0.8
	c0,0.2-0.2,0.5-0.2,0.6c0,0.7,3.1,0.1,8.8,2.2c-2.6,0.8-5.2,0.7-7.8,1.2c-1.5,0.2-2.9,0.6-4.4,1c-1.6,0.6-3.3,0.9-4.7,1.7
	c-0.7,0.4-1.9,0.9-1.9,2c0,0.1,0.2,0.2,0.2,0.4s-0.2,0.4-0.2,0.6c0,1.2,5.5,1.5,5.9,1.5l3.8-0.2c0.8-0.2,1.7-0.3,2.6-0.5
	c2.8-0.6,5.8-0.6,8.5-2.7c0.6-0.6,1.3-1,1.7-1.7c0.2-0.2,0-0.6,0-0.8c0.1-0.2,0.2-0.3,0.2-0.4c0-0.2-0.1-0.2-0.2-0.4
	c0.2-0.1,0.5-0.3,0.7-0.5h5.9l1.5-0.2c-1-1.2-2-1.4-3.4-1.4c-0.2,0-0.2,0-2.2,0.1c-0.9,0-2.6,0.2-2.7,0.2c-1.8,0-2.2-0.7-4.4-1.3
	c-0.9-0.3-2-0.5-2.9-0.7c-0.6-0.2-1.1-0.5-1.6-0.7c0.4-0.2,0.7-0.8,1.2-0.9c0.9-0.3,1.8-0.7,2.7-1.2c0.5-0.3,2.1-0.7,2.1-1.4
	c0-0.3-0.1-0.6-0.2-0.9c-0.4-0.2-2-1.1-2.9-1.1h-1c-1,0-5-0.4-4.5-1.7c3.1-1.9,11.7-6,11.7-6.6c0-0.6-0.2-1.5-1.1-1.5h-0.9l-2.9-0.6
	c-2,0.8-4.4,1.8-6.4,1.4v-0.2c0.1-0.2,0.3-0.4,0.3-0.6c0-0.1-0.2-0.2-0.1-0.3c-0.6,0.5-0.6,0.5-1,0.5c-0.3,0-0.8-0.1-0.8-0.7
	C225.1,23.6,225.1,23.4,225.1,23.3z"/>
<path id="Path_256_1_" d="M108.7,61.8h-0.3c0.1-0.1,0.1-0.3,0.1-0.5c0-0.2-0.1-0.2-0.2-0.3c-0.2,0-0.4-0.1-0.6-0.1H106
	c-0.1,0.1-0.1,0.3-0.2,0.6c-0.2,0.6-0.5,1.1-0.6,1.5h1.8c0.1-0.1,0.2-0.2,0.2-0.4h0.3c-0.1,0.4-0.2,0.8-0.3,1.2h-0.4
	c0-0.1,0-0.2,0.1-0.3c0-0.1-0.1-0.2-0.2-0.2H105c-0.1,0.5-0.3,0.9-0.5,1.4c-0.1,0.4-0.3,0.8-0.6,1.2c0.3,0.1,0.6,0.1,0.9,0.1h0.6
	l-0.1,0.2h-2c-0.4,0-0.9,0-1.3,0.1l0.1-0.3c0.3,0,0.5-0.1,0.7-0.2c0.2-0.1,0.2-0.2,0.3-0.3c0.3-0.6,0.6-1.1,0.7-1.8l0.9-2.9
	c-0.6,0.1-1,0.2-1.5,0.3c-0.4,0.1-0.8,0.4-1,0.7c-0.3,0.2-0.4,0.6-0.4,0.9c0,0.2,0,0.3,0.1,0.5c0.1,0.1,0.1,0.2,0.2,0.3
	c0.2,0.2,0.2,0.3,0.2,0.4l-0.2,0.2c-0.1,0.1-0.2,0.1-0.3,0.1c-0.1,0-0.3-0.1-0.4-0.2c-0.2-0.2-0.2-0.5-0.2-0.7
	c0-0.7,0.4-1.4,0.9-1.8c0.8-0.6,1.7-0.9,2.7-0.8h3.4c0.1,0,0.3-0.1,0.7-0.2C109,61,108.8,61.4,108.7,61.8z"/>
<path id="Path_257_1_" d="M114.1,65.1l0.2,0.2c-0.8,0.6-1.7,1-2.7,1.1c-0.2,0-0.5-0.1-0.7-0.2c-0.2-0.2-0.2-0.4-0.2-0.7
	c0.2-1.6,1.4-3,3.1-3.2c0.3,0,0.5,0.1,0.7,0.2c0.2,0.1,0.2,0.2,0.2,0.5c0,0.2-0.1,0.4-0.3,0.6c-0.3,0.3-0.6,0.5-1,0.7
	c-0.2,0.1-0.7,0.3-1.6,0.6c-0.1,0.2-0.1,0.4-0.1,0.6c0,0.2,0,0.4,0.2,0.5c0.1,0.1,0.2,0.2,0.4,0.2c0.2,0,0.4,0,0.6-0.1
	C113.2,65.5,113.6,65.3,114.1,65.1C114.1,65.1,114.1,65.1,114.1,65.1z M111.8,64.3L111.8,64.3c0.6-0.2,1.1-0.4,1.6-0.7
	c0.2-0.1,0.3-0.3,0.3-0.6c0-0.2,0-0.2-0.2-0.4c-0.1-0.1-0.2-0.1-0.4-0.1c-0.2,0-0.4,0-0.5,0.2c-0.2,0.1-0.4,0.3-0.6,0.6
	C112,63.6,111.9,64,111.8,64.3L111.8,64.3z"/>
<path id="Path_258_1_" d="M117.2,63.4l-0.2-0.2c0.4-0.3,0.9-0.5,1.3-0.7c0.3-0.2,0.5-0.2,0.8-0.2c0.2,0,0.2,0.1,0.2,0.1
	c0.1,0,0.1,0,0.1,0.1c0,0,0,0,0,0v0.2l-0.3,0.9c0.5-0.4,1-0.7,1.6-0.9c0.3-0.2,0.6-0.3,0.9-0.3c0.3,0,0.5,0.3,0.6,0.6
	c0,0.1,0,0.2-0.1,0.3c-0.1,0.4-0.3,0.9-0.6,1.3c-0.2,0.4-0.4,0.9-0.5,1.3c0,0.1,0,0.1,0.1,0.2h0.1c0.2,0,0.4-0.1,0.6-0.2
	c0.2-0.2,0.4-0.3,0.6-0.4l0.2,0.2c-0.5,0.4-0.8,0.6-1.2,0.8c-0.2,0.1-0.4,0.2-0.7,0.2c-0.2,0-0.3,0-0.4-0.1
	c-0.1-0.2-0.2-0.2-0.2-0.5c0.2-0.7,0.4-1.5,0.7-2.1c0.1-0.2,0.2-0.4,0.2-0.7c0-0.1-0.1-0.2-0.2-0.2c-0.2,0-0.4,0.1-0.7,0.2
	c-0.4,0.1-0.7,0.4-1,0.7c-0.2,0.3-0.4,0.5-0.5,0.8l-0.6,1.7h-0.9c0.2-0.6,0.4-0.9,0.6-1.4l0.6-1.8v-0.2c0-0.2-0.1-0.2-0.2-0.2
	c-0.1,0-0.2,0-0.3,0.1C117.7,63.1,117.4,63.2,117.2,63.4z"/>
<path id="Path_259_1_" d="M129.4,62.2l0.6-0.1l-0.8,2.2c-0.2,0.6-0.4,0.9-0.5,1.3v0.7c-0.1,0.5-0.1,0.8-0.2,1.1
	c-0.2,0.4-0.6,0.8-1,0.9c-0.5,0.2-1.1,0.4-1.7,0.4c-0.5,0-0.9-0.1-1.4-0.3c-0.3-0.2-0.4-0.4-0.5-0.7c0-0.3,0.1-0.5,0.4-0.7
	c0.4-0.3,0.8-0.5,1.2-0.7c0.3-0.1,0.6-0.2,0.9-0.4c-0.2,0.1-0.5,0.2-0.7,0.2c-0.2,0-0.3-0.1-0.5-0.2c-0.2-0.1-0.2-0.2-0.2-0.4
	c0-0.6,0.2-1.3,0.7-1.8c0.4-0.6,1-1,1.7-1.3c0.5-0.2,1-0.2,1.6-0.2h0.4L129.4,62.2L129.4,62.2z M128.7,62.9h-0.6
	c-0.3,0-0.7,0.1-1,0.2c-0.3,0.2-0.6,0.5-0.7,0.8c-0.3,0.4-0.4,0.8-0.5,1.3c0,0.1,0.1,0.3,0.2,0.4c0.1,0.2,0.2,0.2,0.4,0.2
	c0.2,0,0.4-0.1,0.6-0.2c0.3-0.2,0.6-0.3,0.7-0.5c0.2-0.3,0.4-0.6,0.5-0.9L128.7,62.9L128.7,62.9L128.7,62.9z M127.8,65.6L127.8,65.6
	c-0.3,0.2-0.9,0.5-1.7,0.9c-0.5,0.2-0.9,0.5-1.3,0.8c-0.2,0.1-0.3,0.3-0.3,0.6c0,0.2,0.2,0.4,0.4,0.6c0.2,0.2,0.5,0.2,0.8,0.2
	c0.3,0,0.6-0.1,0.8-0.2c0.3-0.1,0.6-0.2,0.7-0.5c0.2-0.2,0.3-0.4,0.4-0.7c0.1-0.3,0.2-0.7,0.2-1C127.8,66.1,127.7,65.8,127.8,65.6z"
	/>
<path id="Path_260_1_" d="M143.7,62.6h-0.4c0.1-0.2,0.1-0.4,0.1-0.6c0-0.3-0.1-0.7-0.4-0.9c-0.3-0.2-0.6-0.3-0.9-0.3
	c-0.6,0-1.1,0.2-1.6,0.5c-0.6,0.4-1.1,0.9-1.4,1.5c-0.4,0.6-0.5,1.3-0.6,2c0,0.6,0.2,1.1,0.6,1.6c0.4,0.3,0.8,0.5,1.3,0.6
	c0.8,0,1.5-0.4,2-1c0-0.1,0.1-0.1,0.2-0.1h0.2c0,0.1,0.1,0.1,0.1,0.2c0,0.1-0.2,0.2-0.5,0.5c-0.3,0.3-0.7,0.5-1.1,0.6
	c-0.4,0.1-0.8,0.2-1.2,0.2c-0.5,0-1-0.1-1.4-0.3c-0.4-0.2-0.8-0.5-1-0.8c-0.2-0.4-0.3-0.8-0.4-1.2c0-0.8,0.3-1.5,0.7-2.1
	c0.5-0.6,1.1-1.2,1.9-1.6c0.7-0.3,1.4-0.5,2.1-0.6c0.3,0,0.6,0.1,0.8,0.1c0.1,0,0.6,0.2,1.3,0.4C143.9,61.5,143.7,62,143.7,62.6z"/>
<path id="Path_261_1_" d="M151.1,65.3l0.2,0.2c-0.4,0.3-0.8,0.6-1.2,0.8c-0.2,0.1-0.4,0.2-0.7,0.2c-0.2,0-0.3,0-0.4-0.1
	c-0.2-0.2-0.2-0.2-0.2-0.5c0-0.2,0-0.4,0.1-0.6c0.1-0.3,0.3-0.8,0.6-1.6c0.1-0.2,0.2-0.4,0.2-0.7c0-0.1-0.1-0.2-0.2-0.2
	c-0.6,0.1-1.2,0.4-1.6,0.8c-0.2,0.2-0.4,0.5-0.5,0.8l-0.6,1.7H146c0.2-0.6,0.4-1,0.5-1.4l0.9-3.1c0.1-0.5,0.3-0.9,0.7-1.3
	c0.3-0.3,0.7-0.6,1.1-0.7c0.4-0.1,0.9-0.2,1.3-0.2c0.2,0,0.3,0,0.5,0.1c0.1,0.1,0.2,0.2,0.2,0.3c0,0.1-0.1,0.2-0.2,0.2
	c-0.1,0.1-0.2,0.1-0.5,0.1h-0.4c-0.2-0.1-0.5-0.1-0.7-0.1c-0.2,0-0.4,0.1-0.6,0.2c-0.2,0.2-0.2,0.5-0.4,0.9l-0.7,2.3
	c0.5-0.4,1.1-0.7,1.7-0.9c0.2-0.2,0.5-0.3,0.8-0.3c0.1,0,0.3,0.1,0.4,0.2c0.2,0.1,0.2,0.2,0.2,0.3v0.3c-0.1,0.4-0.3,0.7-0.5,1
	c-0.2,0.7-0.5,1.1-0.5,1.2c-0.1,0.1-0.1,0.3-0.1,0.5V66h0.2c0.2,0,0.4-0.1,0.6-0.2C150.7,65.5,150.8,65.4,151.1,65.3z"/>
<path id="Path_262_1_" d="M156.4,60.2c0.2,0,0.3,0,0.4,0.1l0.2,0.2c0,0.1-0.1,0.3-0.2,0.4c-0.1,0.1-0.3,0.2-0.5,0.2
	c-0.2,0-0.2,0-0.3-0.1l-0.2-0.2c0-0.1,0.1-0.3,0.2-0.4C156.1,60.2,156.2,60.2,156.4,60.2L156.4,60.2z M153.9,63.3L153.9,63.3
	l-0.3-0.2c0.4-0.3,0.8-0.5,1.2-0.7c0.3-0.1,0.6-0.2,0.9-0.2c0.2,0,0.2,0,0.3,0.1s0.2,0.1,0.2,0.2c-0.1,0.4-0.3,0.8-0.5,1.2
	c-0.3,0.7-0.5,1.3-0.7,2c0,0.1,0,0.1,0.1,0.1c0,0.1,0,0.1,0.1,0.1c0,0,0,0,0,0c0.4-0.1,0.7-0.3,1-0.6l0.3,0.2
	c-0.4,0.3-0.8,0.6-1.3,0.8c-0.2,0.1-0.4,0.2-0.7,0.2c-0.2,0-0.2,0-0.3-0.1c-0.2-0.1-0.2-0.2-0.2-0.3c0-0.4,0.3-1.3,0.9-2.9
	c0-0.1,0-0.1,0.1-0.2c0-0.1-0.1-0.1-0.2-0.1c-0.1,0-0.2,0-0.3,0.1C154.6,62.9,154.3,63.1,153.9,63.3L153.9,63.3z"/>
<path id="Path_263_1_" d="M163.2,62.2l0.5-0.1l-0.6,1.2c-0.2,0.5-0.4,1-0.6,1.6c-0.1,0.4-0.2,0.6-0.2,0.7c0,0.1,0.1,0.2,0.2,0.2
	c0.1,0,0.2,0,0.3-0.1c0.3-0.2,0.6-0.3,0.8-0.5l0.2,0.2c-0.5,0.4-0.7,0.6-0.9,0.6c-0.3,0.2-0.5,0.3-0.8,0.4h-0.7
	c-0.1-0.1-0.1-0.2,0-0.3c0,0,0,0,0,0l0.2-0.7c-0.4,0.3-0.8,0.6-1.2,0.9c-0.3,0.1-0.6,0.2-0.9,0.2c-0.2,0-0.5,0-0.6-0.2
	c-0.1-0.2-0.2-0.4-0.2-0.7c0-0.4,0.1-0.9,0.4-1.2c0.3-0.4,0.6-0.8,0.9-1.1c0.4-0.3,0.8-0.5,1.2-0.7c0.4-0.2,0.9-0.2,1.3-0.2h0.5
	L163.2,62.2L163.2,62.2z M162.4,62.9h-0.6c-0.3,0-0.6,0.1-0.9,0.2c-0.3,0.2-0.6,0.5-0.8,0.8c-0.2,0.4-0.4,0.8-0.4,1.2
	c0,0.2,0,0.4,0.2,0.5c0.1,0.1,0.2,0.2,0.4,0.2c0.3-0.1,0.6-0.2,0.9-0.4c0.3-0.3,0.6-0.6,0.7-1L162.4,62.9z"/>
<path id="Path_264_1_" d="M176.1,60.6c-0.5,0.6-1,1.4-1.3,2.1c-0.3,0.5-0.4,1-0.5,1.6c0,0.4,0.2,0.8,0.5,1.1
	c0.4,0.2,0.8,0.4,1.2,0.4c0.4,0,0.8-0.1,1.2-0.2c0.5-0.2,1-0.5,1.4-0.9c0.4-0.5,0.8-1,1-1.6c0.3-0.5,0.4-1.1,0.5-1.7
	c0-0.4-0.2-0.7-0.4-1c-0.1-0.2-0.2-0.2-0.2-0.3c-0.1,0-0.1-0.1-0.1-0.2c0-0.1,0.1-0.2,0.2-0.2c0.1-0.1,0.2-0.1,0.3-0.1
	c0.2,0,0.3,0.1,0.5,0.2c0.2,0.3,0.3,0.7,0.3,1c0,1-0.3,2-0.9,2.9c-0.5,0.8-1.1,1.5-2,2c-0.7,0.4-1.5,0.6-2.3,0.6
	c-0.6,0-1.1-0.2-1.6-0.6c-0.4-0.3-0.6-0.7-0.6-1.2c0-0.4,0.1-0.8,0.2-1.2c0.4-0.9,0.8-1.7,1.4-2.4c-0.5,0-1,0-1.5,0.2
	c-0.3,0-0.7,0.2-0.9,0.4c-0.2,0.1-0.3,0.3-0.3,0.6c0,0.1,0.1,0.2,0.2,0.3s0.2,0.2,0.2,0.3s0,0.2-0.1,0.2c-0.2,0.1-0.2,0.1-0.3,0.1
	c-0.1,0-0.3-0.1-0.4-0.2c-0.2-0.1-0.2-0.2-0.2-0.4c0.1-0.3,0.2-0.5,0.3-0.7c0.2-0.3,0.5-0.5,0.8-0.6c0.4-0.2,0.7-0.3,1.1-0.3
	c0.5-0.1,0.9-0.2,1.4-0.2H176.1z"/>
<path id="Path_265_1_" d="M183.1,63.4l-0.2-0.2c0.6-0.4,0.9-0.6,1.2-0.7c0.3-0.1,0.6-0.2,0.9-0.2c0.1,0,0.1,0,0.2,0.1l0.1,0.1
	c0,0.1,0,0.1-0.1,0.2l-0.3,0.9c0.5-0.4,1-0.7,1.6-0.9c0.3-0.2,0.6-0.3,0.9-0.3c0.1,0,0.3,0.1,0.4,0.2c0.2,0.1,0.2,0.2,0.2,0.4v0.3
	c-0.1,0.2-0.3,0.7-0.6,1.3c-0.1,0.4-0.3,0.9-0.4,1.3V66h0.2c0.2,0,0.4-0.1,0.6-0.2c0.2-0.2,0.4-0.3,0.6-0.4l0.2,0.2
	c-0.4,0.3-0.8,0.6-1.2,0.8c-0.2,0.1-0.4,0.2-0.7,0.2c-0.2,0-0.3,0-0.4-0.1c-0.1-0.2-0.2-0.2-0.2-0.5c0.1-0.8,0.4-1.5,0.7-2.1
	c0.1-0.2,0.2-0.4,0.2-0.7c0-0.1-0.2-0.2-0.3-0.2c-0.6,0.1-1.2,0.4-1.6,0.8c-0.2,0.3-0.4,0.5-0.5,0.8l-0.6,1.7h-0.9
	c0.2-0.5,0.3-0.9,0.5-1.4l0.6-1.8v-0.2c0-0.2,0-0.2-0.1-0.2c-0.1,0-0.2,0-0.3,0.1C183.6,63.1,183.3,63.2,183.1,63.4z"/>
<path id="Path_266_1_" d="M193.7,60.2c0.1,0,0.2,0,0.3,0.1l0.2,0.2c0,0.1-0.1,0.3-0.2,0.4c-0.1,0.1-0.3,0.2-0.5,0.2
	c-0.2,0-0.2,0-0.3-0.1l-0.2-0.2c0-0.1,0.1-0.3,0.2-0.4C193.3,60.2,193.4,60.2,193.7,60.2z M191.1,63.3L191.1,63.3l-0.3-0.2
	c0.4-0.3,0.8-0.5,1.2-0.7c0.3-0.1,0.6-0.2,0.9-0.2c0.2,0,0.3,0,0.3,0.1c0.1,0.1,0.2,0.1,0.2,0.2c-0.1,0.4-0.3,0.8-0.5,1.2
	c-0.3,0.7-0.5,1.3-0.7,2c0,0.1,0,0.1,0.1,0.1c0,0.1,0,0.1,0.1,0.1c0,0,0,0,0,0c0.4-0.1,0.7-0.3,1-0.6l0.3,0.2
	c-0.4,0.3-0.8,0.6-1.3,0.8c-0.2,0.1-0.4,0.2-0.7,0.2c-0.2,0-0.2,0-0.3-0.1c-0.2-0.1-0.2-0.2-0.2-0.3c0-0.4,0.3-1.3,0.9-2.9
	c0-0.1,0-0.1,0.1-0.2c0-0.1-0.1-0.1-0.2-0.1c-0.1,0-0.2,0-0.3,0.1C191.7,62.9,191.4,63.1,191.1,63.3L191.1,63.3z"/>
<path id="Path_267_1_" d="M199,62.8c-0.3,0.3-0.6,0.6-0.7,1c-0.1,0.3-0.2,0.6-0.2,0.9c0,0.2,0.1,0.7,0.2,1.2c0.7-0.4,1.4-0.9,2-1.5
	c0.3-0.3,0.5-0.8,0.6-1.2c0-0.1,0-0.2-0.2-0.4c-0.1-0.2-0.2-0.2-0.2-0.3c0-0.1,0.1-0.2,0.2-0.2c0.1-0.1,0.2-0.2,0.3-0.2
	s0.2,0.1,0.3,0.2c0.1,0.2,0.2,0.4,0.2,0.6c-0.1,0.7-0.4,1.4-0.9,2c-0.9,0.8-1.9,1.5-3.1,1.9c0-0.3-0.1-0.5-0.2-0.7
	c-0.1-0.4-0.2-0.9-0.3-1.3c0-0.4,0.1-0.7,0.3-1c0.3-0.3,0.6-0.6,0.9-0.8c-0.5,0-1.1,0.1-1.6,0.2c-0.2,0.2-0.3,0.2-0.3,0.3
	s0,0.2,0.1,0.2c0,0.1,0,0.1,0.1,0.2l-0.2,0.2c-0.1,0.1-0.1,0.1-0.2,0.1c-0.2,0-0.2-0.1-0.3-0.2c-0.1-0.1-0.2-0.2-0.2-0.3
	c0-0.2,0.1-0.3,0.3-0.5c0.2-0.2,0.5-0.3,0.8-0.4c0.5-0.1,1.1-0.2,1.6-0.2c0.2-0.1,0.4-0.1,0.6-0.2c0.1,0,0.1,0,0.2,0.1
	c0.1,0.1,0.1,0.1,0.1,0.2C199.3,62.6,199.2,62.6,199,62.8z"/>
<path id="Path_268_1_" d="M207.1,65.1l0.2,0.2c-0.8,0.6-1.7,1-2.7,1.1c-0.3,0-0.5-0.1-0.7-0.2c-0.2-0.2-0.2-0.4-0.2-0.7
	c0.2-1.6,1.4-3,3.1-3.2c0.3,0,0.5,0.1,0.7,0.2c0.2,0.1,0.2,0.2,0.2,0.5c0,0.2-0.1,0.4-0.3,0.6c-0.3,0.3-0.6,0.5-1,0.7
	c-0.2,0.1-0.7,0.3-1.6,0.6c-0.1,0.2-0.1,0.4-0.1,0.6c0,0.2,0.1,0.3,0.2,0.5c0.1,0.1,0.3,0.2,0.5,0.2c0.2,0,0.4,0,0.6-0.1
	C206.2,65.5,206.6,65.3,207.1,65.1L207.1,65.1z M204.8,64.3L204.8,64.3c0.6-0.2,1.1-0.4,1.6-0.7c0.2-0.1,0.3-0.3,0.3-0.6
	c0-0.1,0-0.3-0.1-0.4c-0.1-0.1-0.3-0.1-0.5-0.1c-0.2,0-0.4,0-0.5,0.2c-0.2,0.1-0.4,0.3-0.6,0.6C205,63.6,204.9,64,204.8,64.3
	L204.8,64.3z"/>
<path id="Path_269_1_" d="M211.4,66.3h-0.9l0.5-1.3c0.2-0.6,0.4-1.2,0.6-1.8V63c0-0.1,0-0.2-0.1-0.2c-0.1,0-0.2,0-0.3,0.1
	c-0.3,0.1-0.5,0.3-0.7,0.6l-0.2-0.2c0.4-0.3,0.8-0.5,1.2-0.7c0.3-0.2,0.6-0.2,0.9-0.3c0.1,0,0.1,0.1,0.2,0.1c0.1,0,0.1,0,0.1,0.1v0
	c0,0.1,0,0.3-0.1,0.4l-0.3,0.8c0.4-0.5,0.9-0.9,1.5-1.3c0.2-0.2,0.4-0.3,0.7-0.3c0.1,0,0.2,0.1,0.3,0.2c0.1,0,0.2,0.1,0.2,0.2
	s-0.1,0.2-0.2,0.2c-0.2,0.1-0.4,0.2-0.6,0.2c-0.3,0.1-0.6,0.2-0.8,0.3c-0.2,0.2-0.5,0.3-0.7,0.6c-0.2,0.2-0.4,0.5-0.5,0.6
	c-0.2,0.4-0.4,0.8-0.5,1.2L211.4,66.3z"/>
<path id="Path_270_1_" d="M218.9,62.2c0.3,0,0.6,0.1,0.9,0.2c0.2,0.1,0.3,0.2,0.3,0.4c0,0.1-0.1,0.2-0.2,0.2
	c-0.1,0.1-0.2,0.1-0.3,0.1h-0.2c-0.1-0.1-0.2-0.2-0.3-0.2c-0.1-0.2-0.3-0.3-0.6-0.3c-0.2,0-0.4,0-0.5,0.2c-0.2,0.1-0.2,0.2-0.2,0.4
	c0,0.1,0,0.2,0.2,0.4l0.6,0.6c0.6,0.4,0.7,0.7,0.7,1c0,0.4-0.2,0.7-0.6,0.9c-0.5,0.2-1,0.4-1.5,0.4c-0.4,0-0.8,0-1.1-0.2
	c-0.2-0.1-0.4-0.3-0.4-0.6c0-0.1,0-0.2,0.2-0.2c0.1-0.1,0.2-0.2,0.3-0.2c0.2,0,0.2,0.1,0.3,0.1l0.2,0.2v0.3c0,0.2,0.1,0.2,0.2,0.3
	c0.2,0.1,0.4,0.1,0.6,0.1c0.2,0,0.5,0,0.6-0.1c0.2-0.1,0.3-0.2,0.5-0.2c0.1-0.2,0.2-0.3,0.2-0.4c0-0.2-0.1-0.2-0.2-0.4
	c-0.2-0.1-0.3-0.3-0.7-0.6c-0.4-0.2-0.6-0.6-0.7-1c0-0.4,0.3-0.7,0.6-0.8C217.9,62.4,218.3,62.2,218.9,62.2z"/>
<path id="Path_271_1_" d="M225,60.2c0.2,0,0.3,0,0.4,0.1c0.1,0,0.1,0.1,0.1,0.2c0,0.2,0,0.3-0.2,0.4c-0.1,0.1-0.3,0.2-0.5,0.2
	c-0.2,0-0.2,0-0.3-0.1c-0.2-0.1-0.2-0.2-0.2-0.2c0-0.1,0.1-0.3,0.2-0.4C224.6,60.3,224.8,60.2,225,60.2z M222.4,63.3L222.4,63.3
	l-0.3-0.2c0.4-0.3,0.8-0.5,1.2-0.7c0.3-0.1,0.6-0.2,0.9-0.2c0.2,0,0.2,0,0.3,0.1s0.2,0.1,0.2,0.2c-0.1,0.4-0.3,0.8-0.5,1.2
	c-0.3,0.7-0.5,1.3-0.7,2c0,0.1,0,0.1,0.1,0.1c0,0.1,0,0.1,0.1,0.1c0.4-0.1,0.7-0.3,1-0.6l0.3,0.2c-0.4,0.3-0.8,0.6-1.3,0.8
	c-0.2,0.1-0.4,0.2-0.7,0.2c-0.1,0-0.3,0-0.4-0.1c-0.1-0.1-0.1-0.2-0.1-0.3c0-0.4,0.3-1.3,0.9-2.9v-0.2c0-0.1,0-0.1-0.1-0.1
	c-0.1,0-0.2,0-0.3,0.1C223,62.9,222.8,63.1,222.4,63.3z"/>
<path id="Path_272_1_" d="M229.1,61.5l1-0.3l-0.5,1.3h1.2l-0.1,0.3h-1.3l-0.6,1.6c-0.1,0.3-0.2,0.6-0.2,0.9c0,0.2,0,0.2,0.1,0.2
	c0.1,0.1,0.1,0.1,0.2,0.1c0.2,0,0.4-0.1,0.7-0.2c0.3-0.2,0.6-0.3,0.9-0.6l0.3,0.2c-0.6,0.4-1.3,0.7-2,0.9c-0.2,0.1-0.5,0.2-0.7,0.2
	c-0.2,0-0.3,0-0.4-0.1c-0.1-0.1-0.2-0.3-0.2-0.5c0-0.3,0.1-0.7,0.2-1l0.7-2h-1l0.2-0.3h1L229.1,61.5z"/>
<path id="Path_273_1_" d="M233.5,63.2l-0.2-0.2l0.5-0.3c0.4-0.1,0.7-0.3,1-0.5c0.1,0,0.2-0.1,0.3-0.1c0.1,0,0.2,0.1,0.2,0.2
	c0.4,0.4,0.7,0.9,0.9,1.4c0.2,0.6,0.3,1.2,0.4,1.8v0.3c0.7-0.9,1.1-1.8,1.1-2.3c0-0.1-0.1-0.2-0.2-0.5c-0.1-0.2-0.1-0.4-0.1-0.6
	c0-0.1,0-0.2,0.1-0.2c0.1,0,0.2-0.1,0.3-0.1c0.3,0,0.5,0.3,0.6,0.6c-0.1,0.5-0.2,1.1-0.4,1.6c-0.3,0.7-0.7,1.4-1.2,2
	c-0.4,0.6-0.9,1.1-1.5,1.6c-0.4,0.3-0.8,0.5-1.3,0.7c-0.4,0.2-0.8,0.2-1.2,0.2c-0.3,0-0.6,0-0.6-0.1c-0.2-0.1-0.2-0.2-0.2-0.3
	s0-0.2,0.2-0.2c0.1-0.1,0.3-0.2,0.5-0.2c0.2,0,0.4,0.1,0.6,0.1c0.2,0.1,0.4,0.1,0.6,0.1c0.3,0,0.6-0.1,0.9-0.2
	c0.4-0.2,0.7-0.5,0.9-0.8c0.3-0.2,0.4-0.6,0.4-0.9c0-0.5-0.1-1.1-0.2-1.6c-0.1-0.5-0.4-1-0.7-1.4c-0.1-0.2-0.3-0.3-0.6-0.3
	C234.2,63,233.8,63,233.5,63.2z"/>
<line id="Line_1_1_" class="st0" x1="96.4" y1="57.3" x2="241.4" y2="57.3"/>
<line id="Line_2_1_" class="st0" x1="96.4" y1="69.6" x2="241.4" y2="69.6"/>
<path d="M41.7,2.3C20,2.3,2.3,19.9,2.3,41.7c0,21.8,17.6,39.4,39.4,39.4c21.8,0,39.4-17.7,39.4-39.4C81.2,19.9,63.5,2.3,41.7,2.3z
	 M41.7,79.8c-21,0-38.1-17-38.1-38.1s17-38.1,38.1-38.1c21,0,38.1,17,38.1,38.1S62.7,79.8,41.7,79.8z"/>
<path d="M59.6,58.9c0-0.2-0.3-0.5-0.8-0.6c1.8-0.6,4-3.3,3-3.7c1.8-1,2.8-2.6,3.4-4.1c-0.2-0.1-0.3-0.2-0.6-0.1
	c0.9-1.2,2.1-2.9,1.8-4.5c-0.1-0.1-0.2-0.1-0.5,0c0.7-0.9,1.2-5,0.5-5c0.4-1.2,0.5-3.6,0.1-4.4c-0.4,0.1-0.6,0.2-0.9,0.4
	c0.3-1.8-0.3-4.6-0.9-5.1c-0.3,0.1-0.5,0.2-0.7,0.6c0.3-1.6-0.4-3.6-1-4.5c-0.2,0.1-0.4,0.3-0.5,0.6c-0.2-1.6-0.9-3.6-1.7-4.1
	c-0.2,0.1-0.5,0.6-0.7,0.8c-0.2-1.7-0.6-3.6-2.1-4.6c-0.3,0.3-0.4,0.5-0.5,1c-0.5-1.2-1.8-2.5-2.6-3c-0.2,0.1-0.2,0.3-0.3,0.6
	c-0.7-0.9-1.7-1.8-3.2-1.8c-0.2,0.3-0.2,0.5,0.1,0.8c-1.5-0.9-3.3-1.9-5.6-1.5c0.1,1.1,2.1,2.9,4,4c-0.1,0.1-0.4,0.1-0.7,0.4
	c0.8,0.9,2,1.5,3.3,2.2c0,0.6,1.1,1.6,2.6,2.3c0.4,0.9,1.5,2.2,2.2,3c-0.1,0.9,1.1,2.5,2.2,3.2c0,1.5,0.7,2.3,1.5,3.4
	c-0.3,1.3-0.1,2.5,0.4,3.7c-0.1,1.2,0,2.4,0.1,3.4c-0.6,1.2-0.8,2.5-0.7,4.5c-0.9,1-1,1.9-1.3,2.9L59.4,50l0.1,0.2
	c-0.1,0.2-0.1,0.3-0.2,0.5c-0.2,0.2-0.4,0.5-0.5,0.9c-0.1,0.1-0.1,0.2-0.2,0.2h-0.4v0.4h0c-0.5,0.5-0.9,1-1.3,1.5
	c-1.3,0.5-2.3,1.5-3.1,2.8c0-0.1-0.1-0.2-0.2-0.6c-2.1,1.4-3.2,3.4-3.6,6c-0.8,0.6-1.6,1-2.2,1.8c-2,0.9-4.1,1.6-6.3,2.1
	c-2.2-0.5-4.3-1.2-6.4-2.1c-0.6-0.7-1.4-1.2-2.1-1.8c-0.4-2.5-1.5-4.6-3.6-6c-0.2,0.4-0.3,0.5-0.2,0.6c-0.8-1.3-1.8-2.3-3.1-2.8
	c-0.5-0.7-0.9-1.2-1.6-1.8c0,0,0-0.1-0.1-0.1v0h0c0-0.1-0.1-0.1-0.1-0.1c0-0.5-0.3-0.9-0.7-1.2l0.3-0.5l-0.4-0.2L23.7,50
	c-0.4-1.1-0.4-2-1.3-3.1c0.1-2-0.1-3.3-0.7-4.5c0.2-1,0.3-2.2,0.2-3.4c0.5-1.2,0.7-2.4,0.4-3.7c0.8-1.1,1.6-2,1.5-3.4
	c1.1-0.7,2.3-2.3,2.3-3.2c0.7-0.7,1.9-2,2.2-3c1.4-0.7,2.6-1.7,2.6-2.3c1.3-0.7,2.5-1.3,3.3-2.2c-0.2-0.3-0.5-0.3-0.7-0.4
	c1.9-1,3.8-2.9,3.9-4c-2.2-0.4-4,0.6-5.6,1.5c0.3-0.3,0.3-0.5,0.1-0.8c-1.5,0-2.4,0.9-3.2,1.8c-0.1-0.3-0.1-0.5-0.3-0.6
	c-0.9,0.5-2.1,1.8-2.7,3c-0.1-0.5-0.2-0.7-0.4-1c-1.5,1-1.9,3-2.1,4.6c-0.1-0.2-0.4-0.7-0.6-0.8c-0.8,0.5-1.5,2.5-1.7,4.1
	c-0.1-0.3-0.3-0.5-0.5-0.6c-0.6,0.9-1.3,2.8-1,4.5c-0.2-0.3-0.3-0.5-0.7-0.6c-0.6,0.5-1.2,3.3-0.9,5.1c-0.2-0.2-0.4-0.3-0.9-0.4
	c-0.3,0.8-0.3,3.2,0.2,4.4c-0.8,0-0.2,4,0.5,5c-0.3-0.1-0.5-0.1-0.6,0c-0.3,1.5,0.9,3.2,1.8,4.5c-0.3-0.1-0.5,0-0.6,0.1
	c0.6,1.5,1.6,3.1,3.4,4.1c-1,0.4,1.2,3.2,3,3.7c-0.5,0.1-0.8,0.4-0.8,0.6c0.2,0.8,1.7,2.1,3.8,2.8c-0.3,0-0.5,0-0.7,0.3
	c2.2,2,4.8,2.9,8,2.2c1.8,0.7,3.5,1.3,5.2,1.9c-1.5,0.3-3.1,0.5-4.7,0.6c0.6,0.5,1.7,1.2,2.5,1.2c1.4-0.4,2.6-0.8,3.9-1.3
	c1.3,0.4,2.6,0.8,3.9,1.3c0.8-0.1,1.8-0.7,2.4-1.2c-1.6-0.1-3.1-0.3-4.6-0.6c1.7-0.6,3.4-1.2,5.1-1.9c3.2,0.8,5.8-0.2,8-2.2
	c-0.2-0.3-0.4-0.3-0.7-0.3C57.9,61,59.3,59.7,59.6,58.9z M30.2,57.3c0.2,0.2,0.5,0.4,0.7,0.6c0.8,0.9,1.6,2.1,1.7,3.7
	c-0.7,0.1-1.3-0.3-1.7-0.9c-0.3-0.5-0.5-1.1-0.7-1.8c-0.1-0.6-0.2-1.2-0.3-1.9C30,57.2,30.1,57.2,30.2,57.3z M27,54.9
	c0.6,0.3,1.1,0.7,1.4,1.2c0.9,1.3,0.9,3,1.5,3.7c-0.5-0.1-1-0.4-1.5-0.8c-0.6-0.7-1.2-1.9-1.4-3.2C26.9,55.5,26.9,55.2,27,54.9z
	 M25.3,53.6c0.5,0.9,0.9,1.9,1.1,2.9c-0.5-0.3-0.8-0.6-1.1-0.9c-0.9-0.8-1.1-1.5-1.1-2.2c0.2-0.1,0.4-0.3,0.6-0.6
	C24.9,53.1,25.1,53.3,25.3,53.6z M22.6,53.1c-0.6-0.1-1.1-0.6-1.1-1.2c0-0.7,0.5-1.2,1.2-1.2c0.6,0,1.2,0.5,1.2,1.2
	c0,0.7-0.5,1.2-1.2,1.2C22.7,53.1,22.6,53.1,22.6,53.1C22.6,53.1,22.6,53.1,22.6,53.1z M22.5,48.6c0.3,0.5,0.5,0.9,0.5,1.5
	c-0.1,0-0.2,0-0.3,0c-0.4,0-0.7,0.1-1,0.3c0,0,0,0,0,0c-0.1,0-0.1,0-0.2,0c0-0.4,0.1-0.8,0.2-1.2c0.1-0.3,0.3-0.7,0.5-1
	C22.3,48.3,22.4,48.5,22.5,48.6z M21.7,44.6c0.1,0.1,0.2,0.2,0.2,0.3c-0.1,0.7-0.2,1.3-0.2,2.3l-0.5,1.9c-0.1-0.3-0.3-0.7-0.5-0.9
	c-0.1-0.1-0.2-0.1-0.3-0.2c-0.1-0.7-0.1-1.4-0.1-2.1c0.2-0.3,0.3-0.5,0.5-0.7c0.3-0.6,0.6-1,0.8-1.5C21.5,43.9,21.5,44.2,21.7,44.6z
	 M19.9,45.1c-0.1-0.2-0.2-0.3-0.3-0.6c-0.3-0.7-0.3-1.6,0-2.6c0.3-0.7,0.6-1.3,1.1-1.7c0.2-0.2,0.4-0.4,0.6-0.5
	c0.1,1.3-0.1,2.5-0.6,3.7C20.4,44,20.2,44.5,19.9,45.1z M21.7,37.6c-0.2,0.9-0.6,1.4-1.1,1.7c-0.4,0.3-0.8,0.5-0.8,1
	c-0.1-0.3-0.1-0.5-0.2-0.6v-0.1c0.4-0.8,0.6-1.5,0.7-2.3c0.1-0.1,0.3-0.1,0.4-0.2c0.4-0.2,0.8-0.6,1.2-1.1
	C21.9,36.7,21.8,37.2,21.7,37.6z M22.5,34c-0.2,0.3-0.5,0.7-0.7,1c-0.3,0.4-0.7,0.8-1.1,1.1c-0.1,0.1-0.3,0.2-0.4,0.3
	c0-0.7,0.2-1.2,0-1.7c0.1-0.1,0.3-0.2,0.4-0.3c0.4-0.3,0.7-0.6,1.1-0.9c0.2-0.2,0.5-0.3,0.7-0.4c0.2-0.1,0.4-0.2,0.6-0.2
	C22.9,33.2,22.7,33.6,22.5,34z M36.4,17.4c-0.8,1.3-2.1,2.3-3.6,3.1c-0.6,0-1.3,0.3-1.9,0.1v-0.1C31.7,19.2,33.7,17.8,36.4,17.4z
	 M28.5,20.4c0.5-0.6,1.1-1.2,1.7-1.6c0.2-0.2,0.4-0.3,0.8-0.5c0,0.2,0,0.4-0.1,0.6c-0.1,0.5-0.3,0.9-0.7,1.4c-0.4,0.5-1,0.9-1.7,1.4
	C28.6,21.1,28.6,20.7,28.5,20.4z M30.2,21.7c0.2-0.1,0.3-0.1,0.7-0.3c0.7-0.1,1.4-0.1,2.1,0c-0.6,0.7-1.4,1-2.1,1.3
	c-0.2,0.1-0.5,0.1-0.7,0.2c-0.6,0.1-1.2,0.1-1.7,0C28.8,22.5,29.5,22,30.2,21.7z M27,20.8c0.3-0.4,0.7-0.8,1-1.1
	c0.1,1.7-0.3,2.9-1,3.6c-0.3,0.3-0.5,0.5-0.9,0.6c0.1-0.6,0.1-1.2-0.1-1.8C26.3,21.7,26.7,21.2,27,20.8z M27,24.2
	c0.4-0.2,0.8-0.4,1.4-0.6c0.5-0.1,1-0.1,1.7-0.1c-0.1,0.5-0.8,0.9-1.7,1.5c-0.1,0-0.3,0.1-0.4,0.2c-0.3-0.1-0.7-0.1-1-0.1
	c-0.4,0.1-0.8,0.2-1.1,0.3C26.1,24.9,26.5,24.5,27,24.2z M25.1,21.9c0.1,0.3,0.2,0.5,0.2,0.8c0.1,0.5,0.2,1.1,0,1.9
	c-0.1,0.3-0.2,0.7-0.3,1.1c-0.4-0.1-0.8,0.3-1,0.6C23.9,24.6,24.2,22.9,25.1,21.9z M25,26.7c0.1-0.1,0.2-0.1,0.3-0.2
	c0.5-0.2,1-0.4,1.9-0.5L27,26.3c-0.5,0.8-1.1,1.4-1.7,1.9l-0.1,0.1c-0.6-0.1-1.1,0-1.6,0.2C23.8,27.8,24.2,27.2,25,26.7z M25.4,28.8
	c-0.1,0.1-0.1,0.2-0.1,0.3c-0.6,1.3-1.7,2.2-2.8,2.9c-0.2,0.1-0.4,0.3-0.5,0.4c0.1-0.6,0.2-1.2,0.5-1.8
	C22.9,29.8,23.7,29.1,25.4,28.8z M21.7,27.3c0.2-0.6,0.4-1.2,0.8-1.7c0.7,0.8,0.7,2,0,3.7c-0.2,0.3-0.4,0.7-0.7,1
	C21.4,29.7,21.4,28.4,21.7,27.3z M20.3,29.2c0.1,0.2,0.2,0.4,0.3,0.5c0.8,1.5,0.7,2.7,0,3.6c-0.1,0.2-0.3,0.3-0.4,0.5
	C19.6,32.5,19.6,31,20.3,29.2z M18.6,33.3l0.2-0.4c0.3,0.6,0.6,1.2,0.7,2c0,0.2,0,0.3,0,0.5c0.1,0.5,0.1,1.2,0,1.9
	c0,0.2,0,0.4,0,0.5c-0.1,0.3-0.1,0.7-0.2,1c-0.3-0.1-0.5-0.4-0.7-0.8C18,36.9,18,34.9,18.6,33.3z M17.3,37.6c0.5,0.5,1,0.9,1.3,1.5
	c0.5,0.9,0.6,2-0.1,3.6C17.5,41.2,17.1,39.3,17.3,37.6z M17.2,42.2c0.6,0.4,1,1,1.4,1.7c0.4,0.7,0.7,1.5,0.9,2.4c0,0.1,0,0.2,0,0.3
	l0.2,0.7c0,0-0.1-0.1-0.2-0.2c-0.4-0.2-0.7-0.5-0.9-0.7C17,44.9,17.5,43.6,17.2,42.2z M18.6,49.3c-0.4-0.8-0.8-1.6-1.1-2.5
	c0.4,0.1,0.8,0.3,1.1,0.5c0.3,0.2,0.6,0.4,0.9,0.8c0.4,0.4,0.8,0.9,1.1,1.5c0.2,0.4,0.3,0.7,0.5,1.2c-0.2-0.1-0.3-0.2-0.5-0.2
	c-0.4-0.1-0.7-0.2-1.1-0.2c-0.1,0-0.2,0-0.2,0.1L18.6,49.3z M20.6,53.4c-0.4-0.4-0.7-0.8-1.1-1.5c-0.2-0.2-0.3-0.5-0.5-0.8
	c0.1,0,0.3,0,0.5,0.1c0.4,0.1,0.7,0.2,1.1,0.4c0.1,0.1,0.2,0.1,0.3,0.2c0,0.1,0,0.1,0,0.2c0,1,0.8,1.9,1.8,1.9c0.1,0,0.3,0,0.4,0
	c0.3,0.4,0.6,0.9,0.9,1.4c-0.5-0.1-1.1-0.2-1.6-0.4c-0.2-0.1-0.5-0.2-0.7-0.4C21.4,54,21,53.7,20.6,53.4z M22.5,56
	c-0.2-0.2-0.4-0.5-0.7-0.7l0.7,0.1c1,0.2,2,0.5,2.8,1.1c0.7,0.5,1.2,1,1.6,1.8c-0.6-0.1-1.1-0.1-1.6-0.2
	C23.1,57.7,22.9,56.7,22.5,56z M27,61c-0.6-0.2-1.2-0.6-1.7-1c-0.3-0.2-0.6-0.5-0.8-0.7c0.3-0.1,0.5-0.2,0.8-0.3
	c0.5-0.1,1.1,0,1.7,0.2c0.5,0.2,0.9,0.4,1.4,0.7c0.6,0.4,1.2,0.8,1.8,1.2l0.3,0.2l-0.3,0.1c-0.6,0.1-1.2,0.1-1.8,0.1
	C27.9,61.3,27.4,61.2,27,61z M30.9,63.8c-0.3-0.1-0.5-0.2-0.7-0.2c-0.8-0.3-1.4-0.6-1.8-1c-0.1-0.1-0.3-0.2-0.3-0.4l0.3-0.1
	C29,62,29.6,62,30.2,62c0.2,0,0.5,0,0.7,0c1.7,0.1,3,0.9,3.7,1.9C33.5,64.2,32.2,64.1,30.9,63.8z M63.7,52.1c-0.3,0.5-0.7,1-1,1.3
	c-0.3,0.3-0.7,0.6-1.1,0.8c-0.3,0.1-0.5,0.3-0.8,0.4c-0.5,0.2-1,0.4-1.6,0.4c0.2-0.4,0.5-0.8,0.9-1.3c0.2,0,0.3,0.1,0.5,0.1
	c1,0,1.9-0.8,1.9-1.8c0-0.1,0-0.3,0-0.4c0.1,0,0.2-0.1,0.2-0.1c0.3-0.2,0.7-0.3,1.1-0.4c0.2,0,0.3,0,0.4-0.1
	C64.1,51.4,64,51.7,63.7,52.1z M61.8,52.1c0,0.6-0.5,1.2-1.2,1.2c0,0-0.1,0-0.1,0c-0.6-0.1-1-0.5-1.1-0.9c0-0.1,0-0.1,0-0.2
	c0-0.7,0.5-1.2,1.2-1.2C61.3,50.8,61.8,51.4,61.8,52.1z M64.7,49.3L64,50.5c-0.1,0-0.2,0-0.3-0.1c-0.4,0-0.7,0-1,0.2
	c-0.2,0.1-0.3,0.1-0.5,0.2c0.2-0.4,0.3-0.8,0.5-1.2c0.3-0.6,0.7-1.1,1.1-1.6c0.3-0.3,0.6-0.5,0.9-0.7c0.4-0.2,0.7-0.4,1.1-0.5
	C65.5,47.7,65.1,48.5,64.7,49.3z M64.7,46.5c-0.3,0.2-0.5,0.5-1,0.8l-0.2,0.1l0.2-0.7c0-0.1,0-0.2,0.1-0.3c0.2-0.9,0.5-1.8,0.9-2.4
	c0.4-0.7,0.8-1.3,1.4-1.7C65.8,43.6,66.3,44.9,64.7,46.5z M63.4,45.1c-0.3-0.6-0.6-1.1-0.7-1.7c-0.5-1.2-0.7-2.5-0.6-3.7
	c0.2,0.1,0.4,0.3,0.6,0.5c0.4,0.4,0.8,1,1.1,1.9c0.3,0.8,0.3,1.7-0.1,2.6C63.7,44.8,63.6,44.9,63.4,45.1z M66,37.6
	c0.3,1.7-0.2,3.6-1.2,5c-0.7-1.4-0.5-2.5,0-3.4C65,38.6,65.5,38.1,66,37.6z M63.7,35.4c0-0.2,0-0.3,0.1-0.5c0.1-0.7,0.4-1.4,0.7-2
	l0.2,0.4c0.6,1.6,0.5,3.6,0,4.7c-0.2,0.4-0.4,0.6-0.7,0.8c-0.1-0.3-0.1-0.7-0.2-1c0-0.2-0.1-0.4-0.1-0.5
	C63.7,36.5,63.7,35.9,63.7,35.4z M62.7,29.8c0.1-0.2,0.2-0.3,0.3-0.5c0.7,1.8,0.7,3.3,0.1,4.7c-0.1-0.2-0.3-0.3-0.4-0.5
	C62,32.4,61.9,31.2,62.7,29.8z M60.8,25.6c0.4,0.5,0.6,1,0.8,1.7c0.3,1.2,0.3,2.4-0.1,3.1c-0.3-0.4-0.5-0.8-0.7-1.1
	C60.1,27.6,60.1,26.3,60.8,25.6z M58,22.7c0-0.3,0.1-0.5,0.2-0.8c0.8,1,1.2,2.7,1.1,4.5c-0.3-0.3-0.7-0.7-1-0.6
	c-0.1-0.4-0.3-0.8-0.3-1.1C57.9,23.9,57.9,23.2,58,22.7z M55.4,19.7c0.3,0.3,0.6,0.7,1,1.1c0.3,0.4,0.7,0.9,1,1.4
	c-0.2,0.6-0.3,1.1-0.1,1.8c-0.3-0.1-0.6-0.3-0.9-0.6C55.6,22.6,55.3,21.4,55.4,19.7z M52.4,18.4c0.2,0.1,0.5,0.3,0.7,0.4
	c0.5,0.4,1.1,1,1.6,1.6c-0.1,0.3,0,0.7,0.1,1.3c-0.7-0.4-1.3-0.9-1.7-1.4c-0.4-0.5-0.6-0.9-0.7-1.4C52.4,18.7,52.4,18.5,52.4,18.4z
	 M46.9,17.4c2.7,0.4,4.7,1.8,5.5,3.3c-0.6,0.1-1.3-0.2-1.9-0.1C49,19.7,47.8,18.8,46.9,17.4z M52.4,22.7c-0.7-0.2-1.5-0.6-2.1-1.3
	c0.7-0.1,1.4-0.1,2.3,0.1c0.2,0.1,0.3,0.1,0.5,0.2c0.7,0.3,1.3,0.8,1.7,1.2c-0.5,0-1.1,0-1.7,0C52.9,22.8,52.6,22.7,52.4,22.7z
	 M55.4,25.2C55.2,25.1,55.1,25,55,25c-0.9-0.5-1.6-1-1.7-1.5c0.6-0.1,1.2,0,1.7,0.1c0.5,0.1,1,0.3,1.4,0.6c0.5,0.3,0.8,0.8,1.1,1.2
	c-0.4-0.1-0.7-0.2-1.1-0.3C56,25,55.7,25,55.4,25.2z M56.3,26.3V26c0.6,0.1,1.2,0.2,1.7,0.5c0.1,0.1,0.2,0.1,0.3,0.2
	c0.8,0.5,1.2,1.1,1.4,1.8c-0.5-0.2-1-0.3-1.7-0.3C57.4,27.7,56.8,27.1,56.3,26.3z M58,29c0-0.1-0.1-0.2,0-0.2
	c1.6,0.3,2.4,0.9,2.8,1.8c0.3,0.5,0.5,1.1,0.6,1.8c-0.2-0.1-0.4-0.2-0.6-0.4C59.7,31.2,58.6,30.3,58,29z M60.8,34
	c-0.2-0.4-0.4-0.8-0.6-1.2c0.2,0,0.4,0.1,0.6,0.2c0.3,0.1,0.5,0.3,0.8,0.4c0.3,0.3,0.7,0.6,1.1,0.9c0.1,0.1,0.2,0.2,0.3,0.3
	c-0.2,0.4,0,1,0,1.7c-0.1-0.1-0.2-0.2-0.3-0.3c-0.4-0.3-0.7-0.7-1.1-1.1C61.3,34.7,61.1,34.3,60.8,34z M61.6,37.6
	c-0.1-0.4-0.1-0.9,0-1.4c0.3,0.4,0.7,0.7,1.1,0.9c0.1,0.1,0.2,0.2,0.3,0.2c0.1,0.7,0.3,1.5,0.7,2.3c-0.1,0.1-0.2,0.3-0.2,0.6
	c-0.1-0.5-0.4-0.7-0.8-1C62.2,39,61.8,38.5,61.6,37.6z M61.8,44.5c0-0.3,0-0.6,0.1-0.8c0.2,0.5,0.5,0.9,0.8,1.5
	c0.1,0.2,0.3,0.5,0.5,0.7c-0.1,0.6-0.1,1.4-0.1,2.1c-0.2,0-0.3,0.1-0.3,0.2c-0.3,0.2-0.4,0.5-0.5,0.9l-0.5-1.9l-0.1-0.2
	c0.1-0.9,0-1.5-0.2-2.2C61.4,44.8,61.5,44.7,61.8,44.5z M60.8,48.6c0.1-0.1,0.2-0.3,0.3-0.4c0.2,0.3,0.4,0.6,0.5,1
	c0.1,0.4,0.2,0.8,0.2,1.2c-0.1,0-0.2,0-0.2,0c-0.3-0.1-0.5-0.2-0.8-0.2c-0.2,0-0.4-0.1-0.5,0C60.4,49.5,60.6,49.1,60.8,48.6z
	 M58,53.6c0.2-0.3,0.4-0.5,0.6-0.8c0.1,0.3,0.3,0.5,0.6,0.6c0,0.6-0.3,1.3-1.1,2.2c-0.3,0.3-0.7,0.6-1.1,0.9
	C57,55.5,57.5,54.5,58,53.6z M58,56.5c0.8-0.6,1.8-1,2.8-1.1l0.7-0.1c-0.3,0.2-0.5,0.4-0.7,0.7c-0.4,0.7-0.7,1.7-2.8,2.1
	c-0.4,0.1-1,0.2-1.6,0.2C56.8,57.6,57.4,57,58,56.5z M55,56.2c0.3-0.5,0.7-1,1.5-1.3c0,0.3,0,0.6-0.1,1c-0.2,1.3-0.7,2.5-1.4,3.2
	c-0.5,0.4-1,0.7-1.5,0.8C54,59.2,54.1,57.5,55,56.2z M52.4,58c0.2-0.2,0.5-0.4,0.7-0.6c0.1-0.1,0.2-0.1,0.2-0.2
	c0,0.7-0.1,1.3-0.2,1.9c-0.2,0.7-0.4,1.3-0.7,1.8c-0.4,0.6-1,1-1.7,0.9C50.8,60.1,51.6,58.9,52.4,58z M55,62.6
	c-0.5,0.4-1.1,0.7-1.8,1c-0.2,0-0.5,0.1-0.7,0.2c-1.2,0.3-2.6,0.3-3.7,0c0.7-1,2.1-1.7,3.7-1.9c0.2,0,0.5,0,0.7,0
	c0.6,0,1.2,0.1,1.8,0.2c0.1,0,0.2,0.1,0.3,0.1C55.2,62.4,55.1,62.5,55,62.6z M58,59.9c-0.5,0.4-1.1,0.8-1.7,1
	c-0.5,0.2-0.9,0.3-1.4,0.4c-0.6,0.1-1.2,0.1-1.8-0.1l-0.3-0.1l0.3-0.2c0.6-0.4,1.2-0.9,1.8-1.2c0.4-0.3,0.9-0.5,1.4-0.7
	c0.5-0.2,1.1-0.3,1.7-0.2c0.3,0,0.5,0.1,0.8,0.3C58.6,59.4,58.3,59.7,58,59.9z"/>
<path d="M41.7,0C18.7,0,0,18.7,0,41.7s18.7,41.7,41.7,41.7c23.1,0,41.8-18.7,41.8-41.7S64.8,0,41.7,0z M41.7,82.7
	c-22.6,0-40.9-18.3-40.9-40.9S19.1,0.8,41.7,0.8s41,18.3,41,40.9S64.3,82.7,41.7,82.7z"/>
<polygon points="55.1,42.1 55.5,41.9 55.1,41.2 54.8,41.3 "/>
<rect x="48.4" y="51.9" width="0.8" height="0.4"/>
<rect x="47.2" y="51.9" width="0.8" height="0.4"/>
<polygon points="54.6,41 54.9,40.8 54.5,40.1 54.1,40.3 "/>
<rect x="34.9" y="51.9" width="0.8" height="0.4"/>
<rect x="36.2" y="51.9" width="0.8" height="0.4"/>
<rect x="44.8" y="51.9" width="0.8" height="0.4"/>
<rect x="37.4" y="51.9" width="0.8" height="0.4"/>
<rect x="46" y="51.9" width="0.8" height="0.4"/>
<polygon points="45.1,23.7 45.5,23.5 45.1,22.7 44.8,22.9 "/>
<polygon points="39.9,20.7 39.5,20.5 39.1,21.3 39.5,21.5 "/>
<polygon points="39.3,21.8 38.9,21.6 38.6,22.4 38.9,22.6 "/>
<polygon points="38.7,22.9 38.4,22.7 38,23.4 38.3,23.6 "/>
<rect x="43.2" y="19.5" transform="matrix(0.8779 -0.4788 0.4788 0.8779 -4.2684 23.2032)" width="0.4" height="0.8"/>
<polygon points="28.1,41.9 28.4,42.1 28.8,41.3 28.4,41.2 "/>
<polygon points="40.4,19.7 40.1,19.5 39.7,20.2 40.1,20.4 "/>
<path d="M40.5,18.6l-0.2,0.5l0.3,0.2l0.3-0.5c0.2,0.1,0.5,0.2,0.8,0.2c0.3,0,0.5-0.1,0.8-0.2l0.3,0.5l0.4-0.2l-0.3-0.6
	c0.4-0.3,0.7-0.8,0.7-1.4c0-1-0.8-1.8-1.8-1.8c-1,0-1.8,0.8-1.8,1.8C39.9,17.7,40.2,18.2,40.5,18.6z M41.7,16c0.7,0,1.2,0.5,1.2,1.2
	c0,0.6-0.5,1.2-1.2,1.2c-0.6,0-1.2-0.5-1.2-1.2C40.5,16.5,41.1,16,41.7,16z"/>
<polygon points="44,21.5 44.3,21.3 43.9,20.6 43.6,20.8 "/>
<polygon points="31.4,35.7 31,36.5 31.3,36.6 31.7,35.9 "/>
<polygon points="44.6,22.6 44.9,22.4 44.5,21.7 44.2,21.9 "/>
<polygon points="30.4,37.5 30.8,37.7 31.1,37 30.8,36.8 "/>
<polygon points="28.6,40.8 29,41 29.4,40.3 29,40.1 "/>
<polygon points="29.8,38.6 30.2,38.8 30.6,38.1 30.2,37.9 "/>
<polygon points="29.2,39.7 29.6,39.9 30,39.2 29.6,39 "/>
<rect x="25.1" y="51.9" width="0.8" height="0.4"/>
<polygon points="58.9,48.9 59.2,49.6 59.6,49.4 59.2,48.7 "/>
<polygon points="54,39.9 54.3,39.7 53.9,39 53.6,39.2 "/>
<rect x="57" y="51.9" width="0.8" height="0.4"/>
<polygon points="34.5,30 34.8,30.2 35.2,29.4 34.9,29.2 "/>
<rect x="26.3" y="51.9" width="0.8" height="0.4"/>
<rect x="55.8" y="51.9" width="0.8" height="0.4"/>
<rect x="33.8" y="30.6" transform="matrix(0.4766 -0.8791 0.8791 0.4766 -9.1162 46.2223)" width="0.8" height="0.4"/>
<polygon points="24,49.5 24.4,49.6 24.7,48.9 24.4,48.7 "/>
<rect x="27.6" y="51.9" width="0.8" height="0.4"/>
<polygon points="50.4,33.4 50.8,33.2 50.4,32.5 50.1,32.7 "/>
<polygon points="52.8,37.7 53.1,37.5 52.8,36.8 52.4,37 "/>
<polygon points="49.9,32.3 50.2,32.1 49.8,31.4 49.5,31.6 "/>
<polygon points="53.4,38.8 53.7,38.6 53.3,37.9 53,38.1 "/>
<polygon points="49.3,31.3 49.6,31.1 49.2,30.3 48.9,30.5 "/>
<polygon points="32.7,33.2 33.1,33.4 33.5,32.7 33.1,32.5 "/>
<polygon points="49,30 48.6,29.2 48.3,29.5 48.7,30.2 "/>
<polygon points="33.3,32.1 33.7,32.3 34,31.6 33.7,31.4 "/>
<path d="M28.1,10.4l3.1-0.8c0.2,1.9-0.4,3.5-2.1,4.7l0.7,0.4c1.3-1.1,2.1-2.4,2.2-3.8c0-0.1,0-0.2,0-0.4c0.8,1,2.1,1.8,3.8,2.4
	c0.1,0.1,0.3,0.1,0.5,0.2l0.5-0.6c-2.1-0.5-3.5-1.3-4.3-2.3c-0.2-0.2-0.3-0.4-0.4-0.7l3.1-0.8l-0.2-0.6l-3.2,0.8
	c0-0.1-0.1-0.2-0.1-0.3l-0.4-1l-0.7,0.2l0.3,1c0,0.1,0.1,0.2,0.1,0.3l-3.2,0.8L28.1,10.4z"/>
<path d="M18.1,23.5c0.3,0.1,0.4,0.2,0.5,0.3c0.1,0.1,0.1,0.3,0,0.5c-0.2,0.3-0.5,0.5-0.9,0.7l0.5,0.4c0.4-0.2,0.7-0.5,0.9-0.8
	c0.2-0.3,0.3-0.5,0.3-0.8c-0.1-0.3-0.3-0.6-0.7-0.8c-0.1,0-0.1,0-0.2-0.1l1.3-1.8l-0.5-0.3l-1.5,2c-0.1,0-0.1,0-0.2,0l0.3-1.6h-0.8
	L17,21.4L15.1,24l0.5,0.3l1.3-1.8l0.3-0.4L17,23.2h0l-0.1,0.2l-0.1,0.1c0,0,0.1,0,0.1,0c0.2,0,0.4,0,0.5,0l-0.6,0.9l-1.1,1.5
	l0.5,0.3l0.4-0.6L18.1,23.5z"/>
<path d="M14.3,24.6l2.7-3.8l0.5-0.6c0-0.1,0.1-0.1,0.1,0c0.1,0.1,0.3,0.3,0.6,0.6l0.5-0.4c-0.4-0.4-0.7-0.8-1-1l-0.5,0.3v0l0,0.1
	l-2-1.2c-0.1-0.1-0.1,0-0.2,0l-0.4,0.5l-0.5,0.7l0.4,0.2l0,0l0.6-0.8c0,0,0.1,0,0.1,0l0.2,0.1l-0.6,0.9l0.4,0.3l0.6-0.9l0.2,0.1
	l-0.6,0.9l0.4,0.3l0.6-0.9l0.3,0.2l-1,1.4l-0.1-0.4c-0.2,0-0.3,0.1-0.5,0.1c0-0.1,0-0.2,0-0.4l-0.5,0l-0.2-0.5l0,0
	c-0.1,0-0.2,0.1-0.4,0.1c0-0.1,0-0.3,0-0.4l-0.5,0.1c0,0.2,0.1,0.4,0.1,0.6c-0.3,0.1-0.5,0.3-0.6,0.3l0.2,0.5c0-0.1,0.2-0.1,0.4-0.2
	c0,0.2-0.1,0.4-0.2,0.6l0.6,0c0-0.1,0.1-0.2,0.1-0.3l0.2,0.4c0,0,0,0,0,0c0.1,0,0.2-0.1,0.3-0.1c0,0.2-0.1,0.4-0.2,0.6l0.6,0.1l0,0
	c0-0.1,0.1-0.4,0.2-0.9c0.2-0.1,0.4-0.1,0.6-0.2l-0.8,1.1c0,0,0,0,0,0h0l-0.8,1.1L14,24l-0.2-0.2l0.4-0.6l0.2-0.3l-0.2-0.1L14,22.7
	l-0.6,0.9l-0.2-0.1l0.6-0.8l-0.4-0.3l-0.6,0.9L12.5,23c0,0-0.1,0,0-0.1c0.3-0.4,0.5-0.8,0.6-1.1l-0.6-0.1c-0.2,0.4-0.4,0.9-0.7,1.4
	c-0.1,0.1-0.1,0.1,0,0.2l1.9,1.2l-0.2,0.3c0,0.1,0,0.1,0,0.1l0.5,0.3l0.7,0.4l0.4-0.5L14.3,24.6C14.3,24.7,14.3,24.6,14.3,24.6z
	 M14.6,21.5c-0.1,0-0.2,0.1-0.3,0.1c-0.1,0.1-0.2,0.1-0.3,0.1c0-0.3,0-0.5,0.1-0.5c0.1-0.1,0.2-0.1,0.3-0.2c0.1,0,0.2,0,0.2-0.1
	C14.7,21.1,14.7,21.3,14.6,21.5z"/>
<path d="M48,11l2.1,0.7l0.4,0.1l-0.3,0.7l-0.3,1l0.5,0.2l0.1,0l0.6-1.7l0.3,0.1l0.9,0.3l0.4,0.1l0.8,0.3c0.1,0,0.2,0,0.2-0.1
	l1.3-3.9c0.1-0.1,0-0.1-0.1-0.2l-3-0.9l-0.4-0.1l-0.9-0.3l-1.2-0.4c0,0,0,0,0,0c-0.1,0-0.1,0-0.2,0.1l-1.3,3.9
	C47.8,10.9,47.9,11,48,11z M53.2,11.9c0,0.1,0,0.1-0.1,0.1l-0.6-0.2l-0.4-0.1l-0.9-0.3l0.4-1.2l0.3,0.1l0.4,0.1l1.3,0.4L53.2,11.9z
	 M51.9,9.6l0.3-0.7l0.2-0.5l1.9,0.6c0,0,0.1,0,0.1,0.1l-0.4,1.2l-1.6-0.5L51.9,9.6L51.9,9.6z M49.6,8l0.1-0.4c0-0.1,0-0.1,0.1,0
	l0.9,0.3l0.9,0.3l-0.4,1.3L51,9.3l-1.3-0.4l-0.4-0.1L49.6,8z M48.7,10.6l0.4-1.2l0.7,0.2L51,10l-0.4,1.2L50,11L48.7,10.6
	C48.6,10.6,48.6,10.6,48.7,10.6z"/>
<path d="M71.8,23.1l0.1-0.5l-1.1-1.8c0,0,0,0,0,0l-0.1-0.6c-0.1,0-0.2-0.1-0.3-0.1c-0.3-0.1-0.5-0.1-0.7-0.2
	c-0.2-0.1-0.4-0.3-0.7-0.5l-0.4,0.4c0.3,0.2,0.6,0.4,0.9,0.6c0,0.3-0.1,0.7-0.1,1c-0.3-0.3-0.6-0.5-0.9-0.8
	c-0.2-0.2-0.4-0.4-0.6-0.6l-0.3,0.4l-0.1,0.1c0,0,0.1,0.1,0.1,0.1c0.4,0.3,0.7,0.6,1,0.9c0.3,0.2,0.6,0.5,0.9,0.7
	c0.1,0.8,0.3,1.5,0.6,2.2l0.6-0.1c-0.3-0.6-0.5-1.2-0.6-1.7c0.2,0.1,0.4,0.2,0.6,0.2C71.1,23,71.5,23.1,71.8,23.1z M70.1,21.9
	c0-0.4,0-0.7,0.1-1.2l0.4,0.7l0.6,0.9c0,0,0,0,0,0c-0.2-0.1-0.4-0.1-0.6-0.2C70.5,22.1,70.3,22,70.1,21.9z"/>
<path d="M67.5,19.9c0-0.1,0-0.3,0-0.4c0-0.4,0-0.8,0-1.1l-0.1,0l-0.6,0c0,0.4,0,0.8,0,1.5L67.5,19.9z"/>
<path d="M68.4,19.2l0.5,0c0.1-0.6,0.1-1.1,0-1.5h-0.6l-0.1,0c0,0.4,0,0.9,0,1.5H68.4z"/>
<path d="M64.3,21.6c-0.4,0.5-0.3,1.2,0.2,2.1c0.6,0.9,1.3,2,1.9,3.1h0l0.7-0.2c-0.3-0.5-0.6-0.9-0.8-1.2c-0.9-1.3-1.5-2.2-1.6-2.5
	c-0.1-0.3-0.1-0.6,0-0.9c0.1-0.2,0.1-0.3,0.3-0.4l0.9-0.5l0.7-0.4c0.1-0.1,0.1-0.1,0.1-0.2L66,19.2l-0.2,0.1l-0.4,0.2l0.4,0.6
	c0,0,0,0.1,0,0.1l-1.1,0.7C64.4,20.9,64.2,21,64,21c-0.2,0-0.5-0.2-0.9-0.4l-0.4,0.5c0.2,0.2,0.5,0.3,0.8,0.4
	C63.8,21.6,64.1,21.6,64.3,21.6z"/>
<polygon points="69.4,22.6 69.1,22.1 68.7,22.3 68.6,22.3 67.6,20.8 67.1,21.1 67.8,22.1 68.1,22.6 67.8,22.8 67.7,22.9 66.8,21.5 
	66.3,21.8 67.2,23.2 66.8,23.4 66,22.2 65.7,21.7 65.2,22 66.1,23.5 66.2,23.7 66.1,23.7 65.7,24 66.1,24.6 66.2,24.5 66.6,24.3 
	67.6,25.8 68.1,25.6 68.1,25.6 68.1,25.5 67.1,24 67.5,23.7 68,24.4 68.4,25.1 68.9,24.8 68,23.4 68.5,23.2 68.9,23.7 69.4,24.6 
	69.9,24.3 69,22.9 "/>
<path d="M36.8,24.8l-0.7-1.7l-1,0.4l-1.6,0.7l0.7,1.7c-1.1,0.6-2.2,1.3-3.1,2.1l-1.3-1.3l-2,2l1.2,1.3c-0.8,0.9-1.6,2-2.2,3.1
	l-1.6-0.7l-1.1,2.6l1.6,0.6c-0.4,1.2-0.7,2.5-0.8,3.8h-1.7v2.8H25c0.1,1.3,0.4,2.5,0.7,3.7l-1.5,0.6l0.6,1.4l-0.3,0.5l0.4,0.2
	l0.1-0.2l0.3,0.7l1.5-0.6c0.6,1.1,1.3,2.2,2.2,3.2l-0.2,0.2h0v0l-0.9,0.9l2,2l1.2-1.2c1,0.8,2.1,1.5,3.2,2.1l-0.7,1.6l1.6,0.6l1,0.4
	l0.7-1.6c1.2,0.4,2.5,0.6,3.7,0.7v1.8h2.8v-1.8c1.3-0.1,2.5-0.4,3.7-0.8l0.7,1.7l0.8-0.3l1.8-0.7l-0.7-1.8c1.1-0.6,2.1-1.3,3.1-2.1
	l1.4,1.4l2-2l-0.6-0.6v-0.4H55l-0.5-0.5c0.8-0.9,1.5-2,2-3.1l1.9,0.8l0.3-0.6l0.2-0.1l-0.1-0.2l0.7-1.6l-1.9-0.8
	c0.4-1.1,0.6-2.4,0.7-3.6h2.1v-2.8h-2.1c-0.1-1.2-0.4-2.5-0.7-3.6l2-0.8l-1.1-2.6l-2,0.8c-0.6-1-1.2-2.1-2.1-3l1.5-1.5l-2-2
	l-1.5,1.5c-0.9-0.8-2-1.5-3-2.1l0.8-1.9l-1.8-0.7l-0.8-0.3L46.9,25c-0.3-0.1-0.7-0.2-1-0.3l0.2-0.1l-0.4-0.7l-0.3,0.2l0.3,0.5
	c-0.8-0.2-1.5-0.3-2.4-0.4v-2h-2.8v1.9c-0.9,0.1-1.8,0.2-2.7,0.4l0.3-0.6l-0.3-0.2l-0.4,0.7l0.2,0.1C37.3,24.7,37.1,24.7,36.8,24.8z
	 M29.4,47.3c-0.7-1.3-1.2-2.8-1.5-4.3l0.3-0.6l-0.3-0.2l0,0.1c-0.1-0.5-0.1-1-0.1-1.5c0-2.3,0.6-4.5,1.6-6.4l5.7,3.8l0.2,0.2
	L34.5,44L29.4,47.3z M36,38.8l0-0.3l0.8-5.4h2.8l-2-3.8h2.9h1.3h1.5H46L44.2,33h2.5l0.4,2.8l0,0l0.5,2.9l1,6.6h-2.8H45l-0.3-0.7l0,0
	L44.6,44h-0.7h-0.6h-1.5h-1.3h-0.8h-0.3l-0.1,0.2l0,0l-0.5,1h-1h-2.7l0.3-1.8l0,0L36,38.8L36,38.8z M48.5,47l3.1,2.1h-2l-2.5-1.8
	h-1.9l-0.8-1h-1.1v-1.6h0.8l0.5,1.2h2.3L48.5,47z M53.4,50.1c-0.5,0-0.9-0.4-0.9-1c0-0.5,0.4-0.9,0.9-0.9c0.5,0,0.9,0.4,0.9,0.9
	C54.3,49.7,53.9,50.1,53.4,50.1z M43.3,50.2v-1.8h1.1l0.7-0.7h1.7l2,1.6l-1.8,1.5h-2.4v-0.6H43.3z M40.5,51.6h-0.8v-0.9h0.8h2.8h1
	v0.9h-1H40.5z M39.2,50.2v0.6h-2.4l-1.5-1.5l1.5-1.6h1.8l0.7,0.7h1.3v1.8H39.2z M32.7,48.6v1.2h-1.6h-0.9v-1.2h2.3H32.7z M35.1,46.9
	l1.6-1h2.5l0.6-1.2h0.7v1.6h-1.3l-0.8,1h-1.9l-2,1.8h-1.3l0-0.8H33L35.1,46.9z M40.5,47.9h-0.8l-0.6-0.6l0.6-0.5h0.8h2.8h0.5
	l0.6,0.5l-0.6,0.6h-0.5H40.5z M35.1,53.1c-0.4-0.2-0.9-0.5-1.3-0.8h0.7v-0.4h-0.8v0.3c-0.1-0.1-0.3-0.2-0.4-0.3v0h0
	c-0.6-0.5-1.2-1-1.8-1.7h1.7v-0.6h1.3l2,1.7h2.6v0.5h-0.5v0.4h0.8v-0.4h0.4v0.4h0.7v2.4C38.6,54.5,36.8,53.9,35.1,53.1z M48.5,52.9
	c-1.6,0.9-3.3,1.5-5.2,1.7v-2.7h0.2v0.4h0.8v-0.4h0.3v-0.6l2.7,0l2.2-1.7h2.9c-0.7,0.8-1.5,1.6-2.4,2.2h-0.4v0.3
	C49.3,52.4,48.9,52.7,48.5,52.9z M54.1,34.6c0.9,1.9,1.5,4,1.5,6.2c0,0.5,0,1-0.1,1.5l-0.2,0.1l0.1,0.3c-0.2,1.6-0.7,3.2-1.5,4.6
	l-4.8-3.2l-0.9-5.7l0.2-0.1l3.4-2.2l0.3,0.6l0.4-0.2l-0.4-0.6L54.1,34.6z M47.8,28.3l-0.1,0.1l0.4,0.7l0.4-0.2l-0.2-0.3
	c0.1,0,0.1,0.1,0.2,0.1c1.6,0.9,3,2.1,4.1,3.5l-4.1,2.7l-0.7,0.4l-0.5-3h-2l1.9-3.8h-3.9V27C44.9,27.2,46.4,27.6,47.8,28.3z
	 M40.5,28.5h-4l2,3.8h-2.2l-0.4,3l-0.7-0.4L30.9,32c1.1-1.4,2.6-2.6,4.2-3.5c0,0,0.1,0,0.1-0.1l-0.2,0.4l0.3,0.2l0.4-0.7l-0.1-0.1
	c1.5-0.7,3.1-1.2,4.8-1.3C40.5,27,40.5,28.5,40.5,28.5z"/>
<polygon points="41.6,42.3 41.6,43.3 42.2,43.3 42.2,42.3 44.3,42.3 46.5,42.3 46.5,41.7 44.3,41.7 42.2,41.7 42.2,31.7 43.6,31.7 
	43.6,31 42.2,31 42.2,30 41.6,30 41.6,31 40.2,31 40.2,31.7 41.6,31.7 41.6,41.7 39.8,41.7 37.3,41.7 37.3,42.3 39.8,42.3 "/>
<path d="M42.9,37.2l0.3-0.3l0.9,1V41h0.2h0.3v-3.2l0.9-1l0.3,0.3l0.3-0.2l-1.8-1.8l0,0l-1.7,1.8L42.9,37.2z M44.3,35.8L44.3,35.8
	l0.8,0.8l-0.8,0.8l-0.8-0.8L44.3,35.8z"/>
<path d="M38.7,37.7h1h1.3v-2.6h-1.3h-1c-0.2,0-0.3,0.1-0.3,0.3v2C38.5,37.6,38.6,37.7,38.7,37.7z M38.9,35.6
	C38.9,35.6,38.9,35.6,38.9,35.6l0.8-0.1h0.8v0.5h-0.8H39c0,0,0,0,0-0.1V35.6z M38.9,36.7C38.9,36.6,38.9,36.6,38.9,36.7l0.8-0.1h0.8
	v0.6h-0.8H39c0,0,0,0,0,0V36.7z"/>
<polygon points="38.6,41.1 39.8,40 39.8,39.9 40.9,41.1 41.4,40.7 40.2,39.6 41.4,38.4 40.9,38 39.8,39.2 39.8,39.1 38.6,38 
	38.2,38.4 39.4,39.6 38.2,40.7 "/>
<path d="M50,75.4l-0.1-0.3l1.1-0.3l-0.1-0.5l-1.2,0.3l-0.1-0.3l1.3-0.4l-0.2-0.5l-1.2,0.4l-0.1-0.3l1.3-0.4l-0.4-1.4l-1.3,0.4
	l-0.1-0.3l0.8-0.2l-0.3-0.9l0.7-0.2L50,69.7l-0.7,0.2l-0.1-0.4c0.1-0.1,0.1-0.1,0-0.1c0,0-0.1,0-0.2,0l-0.4,0.1l0.2,0.6l-1.1,0.3
	L47.5,70c0.1-0.1,0.1-0.1,0.1-0.2s-0.1,0-0.3,0L46.9,70l0.2,0.6l-0.8,0.2l0.2,0.5l0.7-0.2l0.3,0.9l0.9-0.2l0.1,0.3l-1.3,0.4l0.4,1.5
	l1.3-0.4l0.1,0.3l-1.5,0.4l0.1,0.5l1.5-0.4l0.1,0.4l-1.4,0.4l0.2,0.5l1.4-0.4l0.1,0.4l-1.6,0.5l0.1,0.4c0.1,0.1,0.1,0.2,0.1,0.2
	c0,0,0.1,0,0.1-0.1l3-1.2l-0.1-0.4L50,75.4z M47.9,73.2l-0.1-0.3l0.8-0.2l0.1,0.4L47.9,73.2z M47.9,71.4l-0.1-0.4l1.1-0.3L49,71
	L47.9,71.4z M49.2,72.8l-0.1-0.4l0.8-0.2l0.1,0.4L49.2,72.8z"/>
<path d="M53.7,72.2l-0.6-2l-1.3,0.4L51.3,69c0.1-0.1,0.1-0.2,0.1-0.2c0,0-0.1,0-0.2,0l-0.5,0.1l0.5,1.8l-0.9,0.3l0.1,0.5l0.9-0.3
	c0.2,1,0.3,1.9,0.3,2.6c0,0.7-0.1,1.2-0.3,1.7c0,0,0,0.1,0.1,0.1l0.6,0.1c0.2-0.6,0.2-1.3,0.2-2.1c0-0.8-0.1-1.6-0.3-2.4l0.7-0.2
	l0.4,1.2c0.1,0.3,0.2,0.6,0.2,0.9c0.1,0.3,0.1,0.6,0.1,0.9c0,0.2,0,0.4-0.1,0.5c-0.1,0.1-0.2,0.2-0.4,0.3l-0.3,0.1l0.4,0.5l0.2-0.1
	c0.3-0.1,0.5-0.3,0.6-0.4c0.1-0.2,0.2-0.4,0.2-0.6s0-0.5-0.1-0.8C53.8,72.9,53.8,72.6,53.7,72.2z"/>
<path d="M51.3,75.4L51.3,75.4l0,0.2C51.4,75.5,51.4,75.5,51.3,75.4C51.4,75.4,51.4,75.4,51.3,75.4C51.4,75.4,51.4,75.4,51.3,75.4z"
	/>
<path d="M64.2,65.4L64,66c0.2,0,0.5,0,0.7,0.1c0.2,0,0.4,0.1,0.6,0.1l0.1-0.6c-0.2,0-0.4-0.1-0.7-0.1C64.6,65.4,64.4,65.4,64.2,65.4
	z"/>
<path d="M62.7,67.3c0-0.1,0-0.2,0-0.2c0,0,0,0-0.1,0L62,67.4c0.1,0.3,0.3,0.6,0.4,1c0.1,0.4,0.2,0.7,0.2,1l0.7-0.1
	c-0.1-0.3-0.1-0.6-0.2-0.9C63,68,62.8,67.7,62.7,67.3z"/>
<path d="M63,64.9l0.6,0.7l0.4-0.4l-0.6-0.7l1.3-1.2l0.3,0.3l0.4-0.4l-1.9-2.1l-1.8,1.6l-0.4-0.4c0-0.1,0-0.2,0-0.2c0,0,0,0-0.1,0
	l-0.5,0.3l0.6,0.7l-1.9,1.7l1.9,2.1l0.4-0.4l-0.3-0.3L63,64.9z M63.5,61.9l0.8,1L63,64.1l-0.9-0.9L63.5,61.9z M61.1,65.7l-0.9-0.9
	l1.5-1.3l0.9,0.9L61.1,65.7z"/>
<path d="M66.6,65.5l-0.1-0.4l-0.6,0.1l0.1,0.4c0,0.1,0,0.2,0,0.3c0,0.1-0.1,0.2-0.2,0.3l-1.1,1c-0.2,0.1-0.4,0.2-0.5,0.1
	c-0.1-0.1-0.2-0.1-0.3-0.2l-0.7-0.7c0-0.1,0-0.2,0-0.3c0,0,0,0-0.1,0l-0.6,0.4l1.1,1.2c0.2,0.2,0.4,0.3,0.5,0.3c0.2,0,0.4,0,0.6-0.2
	l1.7-1.5c0.1-0.1,0.2-0.2,0.1-0.4C66.7,65.9,66.7,65.7,66.6,65.5z"/>
<path d="M65.5,64l-0.1,0.6c0.3,0,0.6,0.1,1,0.1c0.3,0.1,0.7,0.2,0.9,0.3l0.1-0.6c-0.3-0.1-0.6-0.2-1-0.2C66.2,64.1,65.9,64,65.5,64z
	"/>
<path d="M37.1,69.8c0.1-0.1,0.2-0.1,0.2-0.2c0-0.1,0-0.1-0.1-0.1l-0.5-0.2l-0.3,1.4l-2-0.4l-0.5,2.3c-0.1,0.5-0.2,1-0.4,1.4
	c-0.2,0.4-0.4,0.8-0.7,1.1l0.4-1.9l-2-0.4l-0.5,2.4l0.6,0.1l0.1-0.4l0.9,0.2l-0.1,0.4l0.5,0.1l0.1-0.4l0.4,0.5
	c0.2-0.2,0.4-0.4,0.5-0.7c0.1-0.2,0.2-0.5,0.3-0.7l0.3,0.7l0.1-0.1c0.3,0,0.5-0.2,0.7-0.5c0.2-0.3,0.4-0.8,0.5-1.4l0.2-0.7L34.6,72
	l0.2-1l1.5,0.3c-0.1,0.7-0.2,1.3-0.2,1.9c0,0.6,0,1.1,0,1.4c-0.2,0.2-0.4,0.4-0.8,0.6c-0.3,0.2-0.6,0.3-0.9,0.4l0.3,0.5
	c0.3-0.1,0.6-0.2,0.8-0.3c0.2-0.1,0.5-0.3,0.8-0.5c0,0.3,0.1,0.5,0.2,0.7c0.1,0.2,0.2,0.3,0.2,0.5c0.1,0.2,0.3,0.2,0.4,0
	c0.2-0.2,0.4-0.5,0.6-1l-0.4-0.5c-0.1,0.2-0.1,0.3-0.2,0.4c-0.1,0.1-0.1,0.2-0.2,0.3c-0.1-0.1-0.1-0.2-0.2-0.3s-0.1-0.3-0.1-0.5
	c0.1-0.2,0.3-0.4,0.5-0.8c0.2-0.3,0.4-0.7,0.7-1.1c0.1,0,0.1-0.1,0.1-0.1c0-0.1,0-0.1-0.1-0.2l-0.4-0.3c-0.1,0.3-0.2,0.5-0.3,0.8
	c-0.1,0.3-0.3,0.6-0.5,0.8c0-0.4,0-0.9,0.1-1.3c0-0.4,0.1-0.9,0.2-1.3l1.5,0.3l0.1-0.5l-1.5-0.3L37.1,69.8z M32.4,74.6l-0.9-0.2
	l0.2-0.9l0.9,0.2L32.4,74.6z M35.2,72.6c-0.1,0.6-0.2,1.1-0.3,1.3c-0.1,0.2-0.3,0.3-0.5,0.3H34c0.1-0.3,0.2-0.6,0.2-0.9
	c0.1-0.3,0.2-0.6,0.2-0.9L35.2,72.6z"/>
<path d="M37.8,69.6L37.4,70c0.1,0.1,0.2,0.3,0.3,0.4c0.1,0.1,0.2,0.3,0.2,0.4l0.5-0.4c-0.1-0.2-0.2-0.3-0.3-0.4
	C38,69.9,37.9,69.7,37.8,69.6z"/>
<polygon points="33.1,72.7 33.2,72.2 31.4,71.8 31.3,72.3 "/>
<polygon points="32.1,68.7 32,69.2 33.7,69.6 33.8,69 "/>
<polygon points="31.4,70.2 33.8,70.6 33.9,70.1 31.5,69.6 "/>
<rect x="32.2" y="70.3" transform="matrix(0.184 -0.9829 0.9829 0.184 -43.4523 90.0146)" width="0.5" height="1.8"/>
<path d="M21.6,61.8c0.1,0,0.2,0.1,0.2,0c0,0,0.1,0,0.1-0.1l-0.4-0.5c-0.3,0.1-0.6,0.2-0.9,0.3c-0.3,0.1-0.7,0.1-1,0.1l0.2,0.5
	c0.1,0,0.2,0,0.4,0c0.2,0,0.3,0,0.5-0.1l0.5,0.4l-0.1,0.7l0.5,0.2l0.1-0.5l0.8,0.6l0.3-0.4l-1.4-1.1C21.5,61.8,21.5,61.8,21.6,61.8
	C21.6,61.8,21.6,61.8,21.6,61.8z"/>
<path d="M18.1,66.5C18,66.7,18,66.8,17.9,67l0.5,0.2c0.1-0.2,0.2-0.4,0.2-0.6s0.1-0.4,0.2-0.6l-0.5-0.2
	C18.3,66.1,18.2,66.3,18.1,66.5z"/>
<path d="M19.3,67.2c-0.1,0.2-0.1,0.4-0.2,0.5l0.5,0.3c0.1-0.2,0.1-0.4,0.2-0.6c0-0.2,0-0.4,0-0.6l-0.4-0.2
	C19.4,66.9,19.3,67,19.3,67.2z"/>
<path d="M16.9,65.4c-0.2,0.1-0.4,0.2-0.5,0.3l0.4,0.5c0.2-0.1,0.3-0.2,0.5-0.4c0.2-0.1,0.3-0.3,0.4-0.4l-0.4-0.4
	C17.3,65.2,17.1,65.3,16.9,65.4z"/>
<path d="M21,68c0-0.2,0-0.3,0-0.4l-0.5,0c0,0.1,0,0.2-0.1,0.4c0,0.1,0,0.3-0.1,0.4l0.6,0.1C21,68.3,21,68.2,21,68z"/>
<path d="M17.9,65.3l0.4,0.3l0.2-0.2l3.7,3c-0.2,0.3-0.5,0.5-0.7,0.6c-0.2,0.1-0.4,0.1-0.6-0.1c-0.1-0.1-0.2-0.2-0.3-0.2
	c-0.1-0.1-0.2-0.1-0.3-0.2l-0.1,0.7c0.1,0,0.1,0.1,0.2,0.2c0.1,0,0.2,0.1,0.3,0.2c0.1,0.1,0.3,0.1,0.5,0.1c0.2,0,0.4-0.1,0.6-0.3
	c0.2-0.2,0.4-0.3,0.6-0.5c0.2-0.2,0.4-0.4,0.5-0.5l-2.2-1.8l0.2-0.3l1.9,1.5l0.3-0.4l-1.9-1.5l0.2-0.3l1.9,1.5l0.3-0.4l-1.9-1.5
	l0.3-0.3l2,1.7l0.3-0.4l-4.4-3.6L17.9,65.3z M20.4,66.3L18.8,65l0.2-0.3l1.6,1.2L20.4,66.3z M20.9,65.5l-1.6-1.2l0.2-0.3l1.6,1.3
	L20.9,65.5z M21.8,64.5l-0.3,0.3l-1.6-1.3l0.3-0.3L21.8,64.5z"/>
<path d="M24,63.8c0,0,0.1-0.1,0.1-0.1c0.1,0,0.1,0,0.2,0s0,0,0-0.1l-0.4-0.5c-0.2,0.1-0.5,0.2-0.8,0.3c-0.3,0.1-0.5,0.2-0.8,0.2
	l0.2,0.5c0.1,0,0.2,0,0.3-0.1c0.1,0,0.3-0.1,0.4-0.1l0.7,0.6l-0.1,0.6l0.5,0.3l0.1-0.5l0.8,0.7l0.3-0.4l-1.8-1.4
	C23.9,63.8,23.9,63.8,24,63.8z"/>
</svg>
